<svg xmlns="http://www.w3.org/2000/svg" width="290" height="400" viewBox="0 0 290 400"><defs><linearGradient id="sky" x1="0" y1="0" x2="0" y2="1">
<stop offset="0" stop-color="hsla(295,55%,13%,1)"/>
<stop offset="0.55" stop-color="hsla(317,60%,30%,1)"/>
<stop offset="1" stop-color="hsla(343,72%,56%,1)"/>
</linearGradient></defs><rect width="290" height="400" fill="url(#sky)"/><circle cx="252.1" cy="6.4" r="0.4" fill="#fff" opacity="0.79"/><circle cx="153.4" cy="76.3" r="1.2" fill="#fff" opacity="0.45"/><circle cx="169.0" cy="107.0" r="1.1" fill="#fff" opacity="0.41"/><circle cx="284.4" cy="37.1" r="1.3" fill="#fff" opacity="0.54"/><circle cx="252.9" cy="127.0" r="1.5" fill="#fff" opacity="0.27"/><circle cx="235.3" cy="245.9" r="1.0" fill="#fff" opacity="0.80"/><circle cx="55.7" cy="29.5" r="1.3" fill="#fff" opacity="0.73"/><circle cx="288.0" cy="159.5" r="0.8" fill="#fff" opacity="0.51"/><circle cx="47.2" cy="118.7" r="1.4" fill="#fff" opacity="0.49"/><circle cx="62.4" cy="238.6" r="1.2" fill="#fff" opacity="0.72"/><circle cx="254.2" cy="44.1" r="0.6" fill="#fff" opacity="0.61"/><circle cx="245.7" cy="92.0" r="0.7" fill="#fff" opacity="0.34"/><circle cx="5.4" cy="177.0" r="1.0" fill="#fff" opacity="0.75"/><circle cx="207.3" cy="232.5" r="0.3" fill="#fff" opacity="0.67"/><circle cx="230.7" cy="149.6" r="1.4" fill="#fff" opacity="0.30"/><circle cx="199.3" cy="4.1" r="1.2" fill="#fff" opacity="0.30"/><circle cx="198.1" cy="14.9" r="1.4" fill="#fff" opacity="0.63"/><circle cx="22.7" cy="113.2" r="1.4" fill="#fff" opacity="0.39"/><circle cx="284.1" cy="56.4" r="0.5" fill="#fff" opacity="0.32"/><circle cx="248.8" cy="90.5" r="1.4" fill="#fff" opacity="0.83"/><circle cx="51.6" cy="242.9" r="1.6" fill="#fff" opacity="0.55"/><circle cx="197.1" cy="109.5" r="1.5" fill="#fff" opacity="0.74"/><circle cx="41.9" cy="69.9" r="0.6" fill="#fff" opacity="0.30"/><circle cx="207.8" cy="215.1" r="1.6" fill="#fff" opacity="0.80"/><circle cx="33.5" cy="28.4" r="0.5" fill="#fff" opacity="0.68"/><circle cx="90.7" cy="189.0" r="1.1" fill="#fff" opacity="0.74"/><circle cx="145.8" cy="238.1" r="0.5" fill="#fff" opacity="0.80"/><circle cx="129.3" cy="49.9" r="1.6" fill="#fff" opacity="0.57"/><circle cx="148.5" cy="210.9" r="1.3" fill="#fff" opacity="0.35"/><circle cx="0.7" cy="197.3" r="1.1" fill="#fff" opacity="0.58"/><circle cx="167.2" cy="243.0" r="0.8" fill="#fff" opacity="0.36"/><circle cx="251.1" cy="207.0" r="0.7" fill="#fff" opacity="0.80"/><circle cx="173.7" cy="217.8" r="1.1" fill="#fff" opacity="0.46"/><circle cx="237.0" cy="245.9" r="0.4" fill="#fff" opacity="0.49"/><circle cx="2.9" cy="36.3" r="1.5" fill="#fff" opacity="0.33"/><circle cx="71.7" cy="146.1" r="1.2" fill="#fff" opacity="0.69"/><circle cx="184.5" cy="187.7" r="0.7" fill="#fff" opacity="0.57"/><circle cx="197.9" cy="107.3" r="1.1" fill="#fff" opacity="0.77"/><circle cx="110.8" cy="226.5" r="1.3" fill="#fff" opacity="0.70"/><circle cx="35.6" cy="49.6" r="0.3" fill="#fff" opacity="0.45"/><circle cx="210.1" cy="118.1" r="1.0" fill="#fff" opacity="0.68"/><circle cx="55.8" cy="98.7" r="0.5" fill="#fff" opacity="0.63"/><circle cx="5.4" cy="235.0" r="0.5" fill="#fff" opacity="0.76"/><circle cx="29.4" cy="218.3" r="0.4" fill="#fff" opacity="0.69"/><circle cx="179.2" cy="5.0" r="0.8" fill="#fff" opacity="0.72"/><circle cx="122.6" cy="229.6" r="1.5" fill="#fff" opacity="0.60"/><circle cx="233.5" cy="170.9" r="1.5" fill="#fff" opacity="0.34"/><circle cx="196.9" cy="219.1" r="1.2" fill="#fff" opacity="0.68"/><path d="M155.577861671336 178.37431263457984 L157.51187754623592 183.34749631289392 L162.48506122455 185.28151218779385 L157.51187754623592 187.21552806269378 L155.577861671336 192.18871174100786 L153.64384579643607 187.21552806269378 L148.67066211812198 185.28151218779385 L153.64384579643607 183.34749631289392 Z" fill="#fff" opacity="0.70"/><path d="M215.44387759175152 68.44940932281315 L217.2892666011676 73.19469534702598 L222.03455262538046 75.0400843564421 L217.2892666011676 76.8854733658582 L215.44387759175152 81.63075939007103 L213.59848858233542 76.8854733658582 L208.85320255812258 75.0400843564421 L213.59848858233542 73.19469534702598 Z" fill="#fff" opacity="0.86"/><circle cx="238" cy="127" r="88" fill="hsla(335,85%,82%,0.13)"/><circle cx="238" cy="127" r="46" fill="hsla(335,90%,88%,1)"/><circle cx="223" cy="119" r="9.3" fill="hsla(335,55%,78%,1)" opacity="0.55"/><circle cx="251" cy="142" r="6.0" fill="hsla(335,55%,78%,1)" opacity="0.45"/><polygon points="0,400 0,232 48,148 97,236 145,204 193,251 242,135 290,183 290,400" fill="hsla(295,45%,20%,1)" opacity="0.9"/><g fill="hsla(290,50%,10%,1)">
<rect x="151.15517421552912" y="201.6" width="5.568" height="46.4"/>
<rect x="196.62717421552912" y="201.6" width="5.568" height="46.4"/>
<rect x="143.2671742155291" y="199.28" width="66.816" height="5.568" rx="1.8559999999999999"/>
<path d="M137.23517421552913 186.752 Q 176.67517421552913 179.328 216.11517421552912 186.752 L213.79517421552913 192.32 Q 176.67517421552913 185.824 139.55517421552912 192.32 Z"/>
</g><polygon points="0,400 0,280 48,206 97,265 145,221 193,259 242,197 290,268 290,400" fill="hsla(283,50%,14%,1)" opacity="0.95"/><polygon points="0,400 0,328 48,308 97,338 145,304 193,319 242,284 290,303 290,400" fill="hsla(295,55%,8%,1)" opacity="1"/><ellipse cx="130" cy="173" rx="5.3" ry="2.9" fill="hsla(325,90%,80%,0.36)" transform="rotate(192 130 173)"/><ellipse cx="251" cy="374" rx="3.9" ry="2.1" fill="hsla(325,90%,80%,0.48)" transform="rotate(165 251 374)"/><ellipse cx="118" cy="150" rx="6.0" ry="3.3" fill="hsla(325,90%,80%,0.51)" transform="rotate(237 118 150)"/><ellipse cx="99" cy="311" rx="5.9" ry="3.2" fill="hsla(325,90%,80%,0.61)" transform="rotate(344 99 311)"/><ellipse cx="103" cy="275" rx="3.2" ry="1.8" fill="hsla(325,90%,80%,0.51)" transform="rotate(148 103 275)"/><ellipse cx="59" cy="10" rx="3.0" ry="1.6" fill="hsla(325,90%,80%,0.45)" transform="rotate(53 59 10)"/><rect x="0" y="344" width="290" height="56" fill="rgba(12,6,24,0.6)"/><text x="50%" y="372" dominant-baseline="central" text-anchor="middle" font-family="Verdana,Geneva,sans-serif" font-size="29.1" fill="#f3e8ff" letter-spacing="0.5">Senryuu Shoujo</text><rect x="0.5" y="0.5" width="289" height="399" fill="none" stroke="rgba(255,255,255,0.25)"/></svg>