<svg xmlns="http://www.w3.org/2000/svg" width="290" height="400" viewBox="0 0 290 400"><defs><linearGradient id="sky" x1="0" y1="0" x2="0" y2="1">
<stop offset="0" stop-color="hsla(302,55%,13%,1)"/>
<stop offset="0.55" stop-color="hsla(324,60%,30%,1)"/>
<stop offset="1" stop-color="hsla(350,72%,56%,1)"/>
</linearGradient></defs><rect width="290" height="400" fill="url(#sky)"/><circle cx="28.1" cy="38.2" r="0.4" fill="#fff" opacity="0.82"/><circle cx="198.3" cy="18.7" r="1.5" fill="#fff" opacity="0.52"/><circle cx="163.9" cy="174.0" r="0.7" fill="#fff" opacity="0.78"/><circle cx="135.7" cy="97.3" r="0.7" fill="#fff" opacity="0.77"/><circle cx="269.4" cy="202.1" r="0.5" fill="#fff" opacity="0.54"/><circle cx="95.0" cy="233.5" r="1.0" fill="#fff" opacity="0.28"/><circle cx="9.7" cy="22.0" r="1.3" fill="#fff" opacity="0.32"/><circle cx="128.0" cy="234.0" r="1.0" fill="#fff" opacity="0.58"/><circle cx="261.7" cy="193.4" r="0.6" fill="#fff" opacity="0.32"/><circle cx="238.8" cy="80.7" r="1.1" fill="#fff" opacity="0.43"/><circle cx="128.5" cy="241.0" r="0.3" fill="#fff" opacity="0.75"/><circle cx="17.2" cy="72.2" r="1.1" fill="#fff" opacity="0.48"/><circle cx="206.9" cy="13.5" r="1.5" fill="#fff" opacity="0.56"/><circle cx="175.7" cy="51.6" r="0.7" fill="#fff" opacity="0.55"/><circle cx="218.2" cy="127.5" r="0.9" fill="#fff" opacity="0.84"/><circle cx="188.8" cy="198.9" r="0.8" fill="#fff" opacity="0.44"/><circle cx="282.0" cy="9.5" r="0.8" fill="#fff" opacity="0.33"/><circle cx="156.5" cy="165.9" r="1.0" fill="#fff" opacity="0.62"/><circle cx="33.4" cy="230.9" r="1.2" fill="#fff" opacity="0.40"/><circle cx="219.8" cy="23.9" r="1.0" fill="#fff" opacity="0.43"/><circle cx="222.7" cy="208.5" r="1.0" fill="#fff" opacity="0.32"/><circle cx="140.2" cy="49.2" r="1.5" fill="#fff" opacity="0.31"/><circle cx="129.0" cy="199.0" r="0.8" fill="#fff" opacity="0.80"/><circle cx="201.7" cy="90.0" r="1.2" fill="#fff" opacity="0.38"/><circle cx="66.2" cy="146.4" r="0.3" fill="#fff" opacity="0.28"/><circle cx="246.5" cy="2.8" r="0.6" fill="#fff" opacity="0.67"/><circle cx="282.8" cy="95.4" r="1.2" fill="#fff" opacity="0.62"/><circle cx="33.6" cy="166.1" r="0.7" fill="#fff" opacity="0.64"/><circle cx="24.4" cy="185.8" r="0.8" fill="#fff" opacity="0.74"/><circle cx="49.9" cy="88.5" r="0.4" fill="#fff" opacity="0.40"/><circle cx="239.1" cy="228.9" r="0.4" fill="#fff" opacity="0.33"/><circle cx="165.6" cy="68.9" r="1.6" fill="#fff" opacity="0.64"/><circle cx="67.0" cy="105.3" r="1.5" fill="#fff" opacity="0.47"/><circle cx="191.9" cy="207.1" r="0.4" fill="#fff" opacity="0.58"/><circle cx="161.6" cy="239.5" r="0.6" fill="#fff" opacity="0.44"/><circle cx="21.8" cy="236.1" r="0.5" fill="#fff" opacity="0.65"/><circle cx="85.0" cy="169.2" r="0.5" fill="#fff" opacity="0.59"/><circle cx="224.6" cy="175.0" r="1.6" fill="#fff" opacity="0.29"/><circle cx="216.5" cy="167.1" r="1.2" fill="#fff" opacity="0.72"/><circle cx="193.1" cy="68.2" r="1.0" fill="#fff" opacity="0.38"/><circle cx="53.3" cy="212.8" r="0.6" fill="#fff" opacity="0.26"/><circle cx="223.9" cy="50.1" r="1.2" fill="#fff" opacity="0.77"/><circle cx="155.6" cy="33.7" r="0.7" fill="#fff" opacity="0.71"/><circle cx="281.0" cy="238.2" r="0.5" fill="#fff" opacity="0.73"/><circle cx="193.8" cy="216.0" r="1.3" fill="#fff" opacity="0.74"/><circle cx="82.4" cy="209.3" r="0.7" fill="#fff" opacity="0.46"/><circle cx="59.6" cy="168.6" r="0.9" fill="#fff" opacity="0.82"/><circle cx="220.0" cy="40.3" r="1.5" fill="#fff" opacity="0.67"/><path d="M269.2851816327311 102.97169784014113 L270.46465208931824 106.00462187136523 L273.49757612054236 107.18409232795238 L270.46465208931824 108.36356278453954 L269.2851816327311 111.39648681576364 L268.105711176144 108.36356278453954 L265.07278714491986 107.18409232795238 L268.105711176144 106.00462187136523 Z" fill="#fff" opacity="0.67"/><path d="M252.47923537390307 145.3585679216776 L253.82140758010559 148.8098678804841 L257.2727075389121 150.1520400866866 L253.82140758010559 151.49421229288913 L252.47923537390307 154.94551225169562 L251.13706316770055 151.49421229288913 L247.68576320889406 150.1520400866866 L251.13706316770055 148.8098678804841 Z" fill="#fff" opacity="0.53"/><circle cx="220" cy="83" r="88" fill="hsla(342,85%,82%,0.13)"/><circle cx="220" cy="83" r="46" fill="hsla(342,90%,88%,1)"/><circle cx="206" cy="75" r="9.3" fill="hsla(342,55%,78%,1)" opacity="0.55"/><circle cx="233" cy="98" r="6.0" fill="hsla(342,55%,78%,1)" opacity="0.45"/><polygon points="0,400 0,232 48,171 97,234 145,166 193,193 242,169 290,197 290,400" fill="hsla(302,45%,20%,1)" opacity="0.9"/><g fill="hsla(297,50%,10%,1)">
<rect x="27.07101404477842" y="201.6" width="5.568" height="46.4"/>
<rect x="72.54301404477842" y="201.6" width="5.568" height="46.4"/>
<rect x="19.183014044778417" y="199.28" width="66.816" height="5.568" rx="1.8559999999999999"/>
<path d="M13.151014044778421 186.752 Q 52.59101404477842 179.328 92.03101404477842 186.752 L89.71101404477841 192.32 Q 52.59101404477842 185.824 15.471014044778421 192.32 Z"/>
</g><polygon points="0,400 0,280 48,205 97,269 145,233 193,262 242,200 290,269 290,400" fill="hsla(290,50%,14%,1)" opacity="0.95"/><polygon points="0,400 0,328 48,291 97,326 145,300 193,334 242,288 290,339 290,400" fill="hsla(302,55%,8%,1)" opacity="1"/><ellipse cx="239" cy="219" rx="2.5" ry="1.4" fill="hsla(325,90%,80%,0.49)" transform="rotate(342 239 219)"/><ellipse cx="147" cy="174" rx="4.1" ry="2.3" fill="hsla(325,90%,80%,0.68)" transform="rotate(252 147 174)"/><ellipse cx="91" cy="36" rx="2.9" ry="1.6" fill="hsla(325,90%,80%,0.35)" transform="rotate(99 91 36)"/><ellipse cx="246" cy="248" rx="3.6" ry="2.0" fill="hsla(325,90%,80%,0.39)" transform="rotate(104 246 248)"/><ellipse cx="169" cy="290" rx="5.1" ry="2.8" fill="hsla(325,90%,80%,0.65)" transform="rotate(162 169 290)"/><ellipse cx="35" cy="43" rx="3.7" ry="2.0" fill="hsla(325,90%,80%,0.47)" transform="rotate(37 35 43)"/><rect x="0" y="344" width="290" height="56" fill="rgba(12,6,24,0.6)"/><text x="50%" y="372" dominant-baseline="central" text-anchor="middle" font-family="Verdana,Geneva,sans-serif" font-size="29.1" fill="#f3e8ff" letter-spacing="0.5">Radiant</text><rect x="0.5" y="0.5" width="289" height="399" fill="none" stroke="rgba(255,255,255,0.25)"/></svg>