<svg xmlns="http://www.w3.org/2000/svg" width="290" height="400" viewBox="0 0 290 400"><defs><linearGradient id="sky" x1="0" y1="0" x2="0" y2="1">
<stop offset="0" stop-color="hsla(303,55%,13%,1)"/>
<stop offset="0.55" stop-color="hsla(325,60%,30%,1)"/>
<stop offset="1" stop-color="hsla(351,72%,56%,1)"/>
</linearGradient></defs><rect width="290" height="400" fill="url(#sky)"/><circle cx="131.7" cy="141.8" r="0.9" fill="#fff" opacity="0.28"/><circle cx="121.5" cy="40.0" r="0.4" fill="#fff" opacity="0.61"/><circle cx="91.2" cy="236.0" r="1.5" fill="#fff" opacity="0.43"/><circle cx="231.3" cy="17.1" r="0.4" fill="#fff" opacity="0.74"/><circle cx="86.3" cy="60.0" r="1.3" fill="#fff" opacity="0.47"/><circle cx="204.8" cy="68.0" r="0.4" fill="#fff" opacity="0.36"/><circle cx="178.9" cy="22.7" r="1.0" fill="#fff" opacity="0.53"/><circle cx="52.6" cy="92.0" r="1.4" fill="#fff" opacity="0.70"/><circle cx="266.9" cy="6.8" r="1.2" fill="#fff" opacity="0.33"/><circle cx="17.3" cy="16.3" r="1.5" fill="#fff" opacity="0.72"/><circle cx="64.8" cy="140.5" r="1.3" fill="#fff" opacity="0.34"/><circle cx="163.6" cy="204.0" r="1.6" fill="#fff" opacity="0.41"/><circle cx="189.1" cy="220.5" r="0.9" fill="#fff" opacity="0.48"/><circle cx="205.2" cy="16.5" r="1.2" fill="#fff" opacity="0.65"/><circle cx="0.2" cy="18.9" r="0.7" fill="#fff" opacity="0.71"/><circle cx="145.5" cy="236.0" r="0.7" fill="#fff" opacity="0.58"/><circle cx="29.1" cy="224.7" r="1.0" fill="#fff" opacity="0.37"/><circle cx="285.8" cy="171.5" r="1.0" fill="#fff" opacity="0.52"/><circle cx="0.2" cy="54.3" r="0.4" fill="#fff" opacity="0.69"/><circle cx="18.0" cy="111.9" r="0.8" fill="#fff" opacity="0.64"/><circle cx="279.4" cy="207.8" r="1.0" fill="#fff" opacity="0.63"/><circle cx="42.9" cy="199.0" r="1.3" fill="#fff" opacity="0.34"/><circle cx="78.6" cy="13.9" r="0.9" fill="#fff" opacity="0.59"/><circle cx="185.2" cy="183.9" r="0.9" fill="#fff" opacity="0.60"/><circle cx="244.6" cy="170.2" r="1.5" fill="#fff" opacity="0.78"/><circle cx="52.5" cy="66.7" r="1.0" fill="#fff" opacity="0.43"/><circle cx="194.5" cy="166.6" r="1.1" fill="#fff" opacity="0.78"/><circle cx="221.3" cy="132.1" r="0.8" fill="#fff" opacity="0.48"/><circle cx="16.7" cy="64.5" r="1.6" fill="#fff" opacity="0.40"/><circle cx="178.0" cy="132.0" r="1.3" fill="#fff" opacity="0.81"/><circle cx="197.0" cy="183.3" r="1.4" fill="#fff" opacity="0.52"/><circle cx="265.7" cy="96.1" r="0.8" fill="#fff" opacity="0.35"/><circle cx="131.0" cy="182.5" r="0.7" fill="#fff" opacity="0.42"/><circle cx="96.5" cy="41.6" r="1.0" fill="#fff" opacity="0.71"/><circle cx="61.5" cy="19.5" r="1.5" fill="#fff" opacity="0.46"/><circle cx="99.4" cy="70.5" r="1.0" fill="#fff" opacity="0.36"/><circle cx="61.8" cy="54.6" r="0.5" fill="#fff" opacity="0.74"/><circle cx="114.1" cy="110.7" r="1.2" fill="#fff" opacity="0.31"/><circle cx="124.8" cy="55.6" r="0.8" fill="#fff" opacity="0.83"/><circle cx="249.9" cy="44.2" r="0.8" fill="#fff" opacity="0.78"/><circle cx="197.5" cy="77.8" r="1.3" fill="#fff" opacity="0.27"/><circle cx="241.2" cy="222.9" r="1.4" fill="#fff" opacity="0.28"/><circle cx="161.2" cy="243.8" r="1.4" fill="#fff" opacity="0.25"/><circle cx="197.2" cy="140.1" r="1.3" fill="#fff" opacity="0.84"/><circle cx="47.0" cy="166.6" r="0.7" fill="#fff" opacity="0.55"/><circle cx="138.8" cy="217.2" r="1.2" fill="#fff" opacity="0.55"/><circle cx="197.7" cy="0.1" r="0.5" fill="#fff" opacity="0.66"/><circle cx="59.5" cy="10.5" r="0.8" fill="#fff" opacity="0.59"/><path d="M214.6078110160306 106.56295897718519 L216.64985680110752 111.81393385309725 L221.9008316770196 113.85597963817418 L216.64985680110752 115.8980254232511 L214.6078110160306 121.14900029916316 L212.5657652309537 115.8980254232511 L207.31479035504162 113.85597963817418 L212.5657652309537 111.81393385309725 Z" fill="#fff" opacity="0.61"/><path d="M223.48670308943838 16.86253242008388 L225.1220937855169 21.067822781428696 L229.32738414686173 22.703213477507234 L225.1220937855169 24.33860417358577 L223.48670308943838 28.543894534930587 L221.85131239335985 24.33860417358577 L217.64602203201503 22.703213477507234 L221.85131239335985 21.067822781428696 Z" fill="#fff" opacity="0.57"/><circle cx="211" cy="91" r="88" fill="hsla(343,85%,82%,0.13)"/><circle cx="211" cy="91" r="46" fill="hsla(343,90%,88%,1)"/><circle cx="197" cy="83" r="9.3" fill="hsla(343,55%,78%,1)" opacity="0.55"/><circle cx="224" cy="106" r="6.0" fill="hsla(343,55%,78%,1)" opacity="0.45"/><polygon points="0,400 0,232 48,197 97,203 145,139 193,186 242,200 290,252 290,400" fill="hsla(303,45%,20%,1)" opacity="0.9"/><g fill="hsla(298,50%,10%,1)">
<rect x="22.320502557996658" y="201.6" width="5.568" height="46.4"/>
<rect x="67.79250255799666" y="201.6" width="5.568" height="46.4"/>
<rect x="14.432502557996656" y="199.28" width="66.816" height="5.568" rx="1.8559999999999999"/>
<path d="M8.40050255799666 186.752 Q 47.84050255799666 179.328 87.28050255799666 186.752 L84.96050255799665 192.32 Q 47.84050255799666 185.824 10.72050255799666 192.32 Z"/>
</g><polygon points="0,400 0,280 48,231 97,295 145,200 193,263 242,242 290,267 290,400" fill="hsla(291,50%,14%,1)" opacity="0.95"/><polygon points="0,400 0,328 48,287 97,318 145,278 193,326 242,308 290,305 290,400" fill="hsla(303,55%,8%,1)" opacity="1"/><ellipse cx="159" cy="134" rx="3.4" ry="1.9" fill="hsla(325,90%,80%,0.54)" transform="rotate(104 159 134)"/><ellipse cx="253" cy="276" rx="5.8" ry="3.2" fill="hsla(325,90%,80%,0.62)" transform="rotate(218 253 276)"/><ellipse cx="238" cy="57" rx="3.7" ry="2.0" fill="hsla(325,90%,80%,0.38)" transform="rotate(281 238 57)"/><ellipse cx="45" cy="140" rx="2.6" ry="1.4" fill="hsla(325,90%,80%,0.59)" transform="rotate(310 45 140)"/><ellipse cx="93" cy="259" rx="3.3" ry="1.8" fill="hsla(325,90%,80%,0.44)" transform="rotate(17 93 259)"/><ellipse cx="227" cy="63" rx="2.3" ry="1.3" fill="hsla(325,90%,80%,0.33)" transform="rotate(122 227 63)"/><rect x="0" y="344" width="290" height="56" fill="rgba(12,6,24,0.6)"/><text x="50%" y="372" dominant-baseline="central" text-anchor="middle" font-family="Verdana,Geneva,sans-serif" font-size="29.1" fill="#f3e8ff" letter-spacing="0.5">Unnamed Memory</text><rect x="0.5" y="0.5" width="289" height="399" fill="none" stroke="rgba(255,255,255,0.25)"/></svg>