<svg xmlns="http://www.w3.org/2000/svg" width="500" height="280" viewBox="0 0 500 280"><defs><linearGradient id="sky" x1="0" y1="0" x2="0" y2="1">
<stop offset="0" stop-color="hsla(254,55%,13%,1)"/>
<stop offset="0.55" stop-color="hsla(276,60%,30%,1)"/>
<stop offset="1" stop-color="hsla(302,72%,56%,1)"/>
</linearGradient></defs><rect width="500" height="280" fill="url(#sky)"/><circle cx="58.9" cy="108.0" r="1.5" fill="#fff" opacity="0.62"/><circle cx="257.1" cy="13.5" r="1.0" fill="#fff" opacity="0.81"/><circle cx="398.9" cy="25.5" r="1.4" fill="#fff" opacity="0.33"/><circle cx="389.3" cy="46.3" r="1.3" fill="#fff" opacity="0.44"/><circle cx="270.8" cy="113.5" r="0.6" fill="#fff" opacity="0.43"/><circle cx="353.0" cy="48.5" r="0.8" fill="#fff" opacity="0.52"/><circle cx="105.1" cy="27.0" r="1.0" fill="#fff" opacity="0.42"/><circle cx="442.8" cy="69.0" r="1.2" fill="#fff" opacity="0.33"/><circle cx="168.4" cy="130.8" r="1.2" fill="#fff" opacity="0.78"/><circle cx="446.3" cy="98.1" r="0.8" fill="#fff" opacity="0.83"/><circle cx="322.3" cy="62.4" r="1.1" fill="#fff" opacity="0.61"/><circle cx="418.6" cy="90.1" r="1.1" fill="#fff" opacity="0.37"/><circle cx="63.6" cy="128.9" r="0.4" fill="#fff" opacity="0.60"/><circle cx="237.8" cy="41.8" r="1.0" fill="#fff" opacity="0.35"/><circle cx="345.2" cy="152.6" r="1.2" fill="#fff" opacity="0.47"/><circle cx="441.8" cy="123.7" r="0.9" fill="#fff" opacity="0.75"/><circle cx="179.1" cy="107.7" r="0.5" fill="#fff" opacity="0.52"/><circle cx="346.6" cy="172.2" r="1.0" fill="#fff" opacity="0.80"/><circle cx="19.7" cy="116.2" r="1.1" fill="#fff" opacity="0.62"/><circle cx="446.0" cy="103.4" r="1.3" fill="#fff" opacity="0.82"/><circle cx="429.3" cy="151.8" r="1.0" fill="#fff" opacity="0.38"/><circle cx="91.8" cy="34.1" r="0.6" fill="#fff" opacity="0.31"/><circle cx="24.2" cy="144.1" r="1.2" fill="#fff" opacity="0.26"/><circle cx="455.7" cy="110.1" r="0.6" fill="#fff" opacity="0.76"/><circle cx="202.0" cy="137.9" r="1.3" fill="#fff" opacity="0.33"/><circle cx="273.1" cy="41.0" r="0.7" fill="#fff" opacity="0.51"/><circle cx="150.8" cy="159.4" r="1.1" fill="#fff" opacity="0.61"/><circle cx="366.7" cy="79.0" r="1.0" fill="#fff" opacity="0.32"/><circle cx="139.1" cy="136.1" r="0.6" fill="#fff" opacity="0.71"/><circle cx="452.6" cy="141.0" r="0.3" fill="#fff" opacity="0.42"/><circle cx="86.8" cy="45.5" r="1.2" fill="#fff" opacity="0.62"/><circle cx="227.4" cy="27.8" r="1.4" fill="#fff" opacity="0.45"/><circle cx="418.3" cy="117.1" r="1.0" fill="#fff" opacity="0.72"/><circle cx="236.0" cy="44.1" r="0.5" fill="#fff" opacity="0.51"/><circle cx="195.7" cy="47.5" r="1.4" fill="#fff" opacity="0.49"/><circle cx="20.9" cy="110.4" r="0.4" fill="#fff" opacity="0.83"/><circle cx="34.2" cy="6.0" r="0.8" fill="#fff" opacity="0.73"/><circle cx="53.3" cy="144.7" r="0.9" fill="#fff" opacity="0.82"/><circle cx="298.4" cy="131.7" r="0.8" fill="#fff" opacity="0.27"/><circle cx="444.9" cy="150.7" r="1.3" fill="#fff" opacity="0.33"/><circle cx="79.5" cy="84.6" r="1.0" fill="#fff" opacity="0.34"/><circle cx="440.9" cy="13.5" r="0.8" fill="#fff" opacity="0.83"/><circle cx="454.7" cy="40.4" r="1.1" fill="#fff" opacity="0.45"/><circle cx="194.4" cy="44.0" r="1.1" fill="#fff" opacity="0.51"/><circle cx="26.4" cy="3.1" r="0.3" fill="#fff" opacity="0.72"/><circle cx="322.1" cy="14.3" r="0.7" fill="#fff" opacity="0.57"/><circle cx="244.3" cy="40.0" r="0.8" fill="#fff" opacity="0.57"/><circle cx="241.6" cy="158.4" r="1.6" fill="#fff" opacity="0.72"/><circle cx="7.6" cy="50.1" r="0.6" fill="#fff" opacity="0.83"/><circle cx="288.8" cy="142.5" r="0.9" fill="#fff" opacity="0.47"/><circle cx="48.4" cy="107.6" r="1.1" fill="#fff" opacity="0.36"/><circle cx="118.2" cy="0.3" r="0.6" fill="#fff" opacity="0.36"/><circle cx="97.7" cy="165.3" r="1.5" fill="#fff" opacity="0.36"/><circle cx="382.6" cy="79.9" r="0.5" fill="#fff" opacity="0.67"/><circle cx="330.5" cy="159.0" r="1.4" fill="#fff" opacity="0.78"/><circle cx="196.0" cy="4.5" r="1.4" fill="#fff" opacity="0.58"/><circle cx="94.5" cy="166.9" r="0.5" fill="#fff" opacity="0.79"/><circle cx="376.0" cy="116.8" r="1.3" fill="#fff" opacity="0.31"/><path d="M417.9728009039536 75.59381518443115 L419.89209001326003 80.52913003693335 L424.8274048657622 82.44841914623976 L419.89209001326003 84.36770825554616 L417.9728009039536 89.30302310804836 L416.0535117946472 84.36770825554616 L411.118196942145 82.44841914623976 L416.0535117946472 80.52913003693335 Z" fill="#fff" opacity="0.57"/><path d="M468.64448313135654 16.542663177708164 L469.9958849223424 20.017696354528887 L473.4709180991631 21.369098145514727 L469.9958849223424 22.720499936500566 L468.64448313135654 26.19553311332129 L467.2930813403707 22.720499936500566 L463.81804816355 21.369098145514727 L467.2930813403707 20.017696354528887 Z" fill="#fff" opacity="0.73"/><path d="M300.2921702573076 117.76250331592746 L302.02882138566116 122.22817764597944 L306.49449571571313 123.964828774333 L302.02882138566116 125.70147990268656 L300.2921702573076 130.16715423273854 L298.555519128954 125.70147990268656 L294.08984479890205 123.964828774333 L298.555519128954 122.22817764597944 Z" fill="#fff" opacity="0.66"/><path d="M53.78702946472913 126.10421121516265 L55.58094547522254 130.71713809928858 L60.19387235934846 132.51105410978198 L55.58094547522254 134.30497012027539 L53.78702946472913 138.9178970044013 L51.99311345423572 134.30497012027539 L47.3801865701098 132.51105410978198 L51.99311345423572 130.71713809928858 Z" fill="#fff" opacity="0.61"/><circle cx="362" cy="66" r="85" fill="hsla(294,85%,82%,0.13)"/><circle cx="362" cy="66" r="45" fill="hsla(294,90%,88%,1)"/><circle cx="348" cy="58" r="9.0" fill="hsla(294,55%,78%,1)" opacity="0.55"/><circle cx="375" cy="81" r="5.8" fill="hsla(294,55%,78%,1)" opacity="0.45"/><polygon points="0,280 0,162 83,145 167,164 250,108 333,150 417,121 500,156 500,280" fill="hsla(254,45%,20%,1)" opacity="0.9"/><g fill="hsla(249,50%,10%,1)">
<rect x="186.78337634461" y="128.79999999999998" width="5.376" height="44.800000000000004"/>
<rect x="230.68737634461002" y="128.79999999999998" width="5.376" height="44.800000000000004"/>
<rect x="179.16737634461" y="126.55999999999999" width="64.512" height="5.376" rx="1.7920000000000003"/>
<path d="M173.34337634461 114.46399999999998 Q 211.42337634461 107.29599999999999 249.50337634461002 114.46399999999998 L247.26337634461 119.83999999999999 Q 211.42337634461 113.56799999999998 175.58337634461 119.83999999999999 Z"/>
</g><polygon points="0,280 0,196 83,173 167,188 250,157 333,165 417,142 500,181 500,280" fill="hsla(242,50%,14%,1)" opacity="0.95"/><polygon points="0,280 0,230 83,197 167,220 250,204 333,230 417,194 500,217 500,280" fill="hsla(254,55%,8%,1)" opacity="1"/><ellipse cx="278" cy="1" rx="4.6" ry="2.6" fill="hsla(325,90%,80%,0.61)" transform="rotate(185 278 1)"/><ellipse cx="253" cy="214" rx="4.8" ry="2.6" fill="hsla(325,90%,80%,0.55)" transform="rotate(215 253 214)"/><ellipse cx="157" cy="83" rx="4.1" ry="2.3" fill="hsla(325,90%,80%,0.46)" transform="rotate(168 157 83)"/><ellipse cx="120" cy="80" rx="2.9" ry="1.6" fill="hsla(325,90%,80%,0.45)" transform="rotate(8 120 80)"/><ellipse cx="299" cy="40" rx="4.3" ry="2.3" fill="hsla(325,90%,80%,0.68)" transform="rotate(93 299 40)"/><ellipse cx="310" cy="165" rx="4.8" ry="2.6" fill="hsla(325,90%,80%,0.58)" transform="rotate(188 310 165)"/><ellipse cx="356" cy="214" rx="4.6" ry="2.5" fill="hsla(325,90%,80%,0.40)" transform="rotate(237 356 214)"/><ellipse cx="160" cy="22" rx="4.4" ry="2.4" fill="hsla(325,90%,80%,0.73)" transform="rotate(219 160 22)"/><ellipse cx="275" cy="130" rx="2.3" ry="1.3" fill="hsla(325,90%,80%,0.55)" transform="rotate(211 275 130)"/><ellipse cx="31" cy="71" rx="5.8" ry="3.2" fill="hsla(325,90%,80%,0.40)" transform="rotate(284 31 71)"/><text x="50%" y="146" text-anchor="middle" font-family="Georgia,'Times New Roman',serif" font-weight="bold" font-size="95" fill="#fff" paint-order="stroke" stroke="hsla(254,60%,18%,0.85)" stroke-width="7.6">EP 12</text><rect x="0" y="241" width="500" height="39" fill="rgba(12,6,24,0.6)"/><text x="50%" y="260" dominant-baseline="central" text-anchor="middle" font-family="Verdana,Geneva,sans-serif" font-size="20.4" fill="#f3e8ff" letter-spacing="0.5">Unnamed Memory</text><rect x="0.5" y="0.5" width="499" height="279" fill="none" stroke="rgba(255,255,255,0.25)"/></svg>