<svg xmlns="http://www.w3.org/2000/svg" width="290" height="400" viewBox="0 0 290 400"><defs><linearGradient id="sky" x1="0" y1="0" x2="0" y2="1">
<stop offset="0" stop-color="hsla(235,55%,13%,1)"/>
<stop offset="0.55" stop-color="hsla(257,60%,30%,1)"/>
<stop offset="1" stop-color="hsla(283,72%,56%,1)"/>
</linearGradient></defs><rect width="290" height="400" fill="url(#sky)"/><circle cx="35.1" cy="26.3" r="1.2" fill="#fff" opacity="0.68"/><circle cx="20.3" cy="166.9" r="1.6" fill="#fff" opacity="0.44"/><circle cx="51.1" cy="118.3" r="1.2" fill="#fff" opacity="0.83"/><circle cx="16.7" cy="184.5" r="0.5" fill="#fff" opacity="0.42"/><circle cx="14.9" cy="92.8" r="0.9" fill="#fff" opacity="0.78"/><circle cx="219.7" cy="119.9" r="0.4" fill="#fff" opacity="0.69"/><circle cx="218.5" cy="160.2" r="0.7" fill="#fff" opacity="0.33"/><circle cx="160.0" cy="209.4" r="1.1" fill="#fff" opacity="0.38"/><circle cx="40.2" cy="99.5" r="1.3" fill="#fff" opacity="0.49"/><circle cx="191.5" cy="99.5" r="1.5" fill="#fff" opacity="0.46"/><circle cx="27.5" cy="92.3" r="0.9" fill="#fff" opacity="0.61"/><circle cx="284.4" cy="60.2" r="0.6" fill="#fff" opacity="0.58"/><circle cx="155.1" cy="207.6" r="1.4" fill="#fff" opacity="0.76"/><circle cx="213.5" cy="106.1" r="1.2" fill="#fff" opacity="0.84"/><circle cx="58.8" cy="26.6" r="1.2" fill="#fff" opacity="0.75"/><circle cx="272.8" cy="0.2" r="1.2" fill="#fff" opacity="0.59"/><circle cx="85.4" cy="142.7" r="1.1" fill="#fff" opacity="0.80"/><circle cx="195.3" cy="142.3" r="0.7" fill="#fff" opacity="0.80"/><circle cx="257.5" cy="81.1" r="0.6" fill="#fff" opacity="0.55"/><circle cx="48.3" cy="116.2" r="0.4" fill="#fff" opacity="0.58"/><circle cx="54.7" cy="78.0" r="0.4" fill="#fff" opacity="0.51"/><circle cx="204.6" cy="104.5" r="0.8" fill="#fff" opacity="0.83"/><circle cx="169.4" cy="23.2" r="0.9" fill="#fff" opacity="0.49"/><circle cx="99.4" cy="210.8" r="1.5" fill="#fff" opacity="0.79"/><circle cx="149.6" cy="30.1" r="0.7" fill="#fff" opacity="0.53"/><circle cx="122.3" cy="170.1" r="0.5" fill="#fff" opacity="0.59"/><circle cx="46.1" cy="153.5" r="0.7" fill="#fff" opacity="0.62"/><circle cx="265.7" cy="189.5" r="1.3" fill="#fff" opacity="0.31"/><circle cx="265.8" cy="246.5" r="0.6" fill="#fff" opacity="0.47"/><circle cx="168.1" cy="193.4" r="1.5" fill="#fff" opacity="0.76"/><circle cx="210.9" cy="205.3" r="0.6" fill="#fff" opacity="0.56"/><circle cx="263.7" cy="199.9" r="0.6" fill="#fff" opacity="0.80"/><circle cx="53.2" cy="105.0" r="1.0" fill="#fff" opacity="0.75"/><circle cx="266.7" cy="92.6" r="0.8" fill="#fff" opacity="0.64"/><circle cx="134.4" cy="227.6" r="0.3" fill="#fff" opacity="0.78"/><circle cx="212.4" cy="27.9" r="1.2" fill="#fff" opacity="0.44"/><circle cx="22.0" cy="237.0" r="0.5" fill="#fff" opacity="0.81"/><circle cx="282.8" cy="237.9" r="1.6" fill="#fff" opacity="0.63"/><circle cx="120.3" cy="229.3" r="1.2" fill="#fff" opacity="0.79"/><circle cx="288.8" cy="228.7" r="0.5" fill="#fff" opacity="0.61"/><circle cx="37.9" cy="187.4" r="1.0" fill="#fff" opacity="0.41"/><circle cx="257.1" cy="102.5" r="1.4" fill="#fff" opacity="0.41"/><circle cx="90.4" cy="70.1" r="1.5" fill="#fff" opacity="0.41"/><circle cx="93.5" cy="34.4" r="1.4" fill="#fff" opacity="0.56"/><circle cx="138.2" cy="41.8" r="1.6" fill="#fff" opacity="0.80"/><circle cx="61.5" cy="138.1" r="1.5" fill="#fff" opacity="0.26"/><circle cx="111.0" cy="96.5" r="1.0" fill="#fff" opacity="0.40"/><circle cx="46.5" cy="221.5" r="0.8" fill="#fff" opacity="0.37"/><path d="M186.8913556309417 53.32192702498287 L187.83264054335655 55.74237394262105 L190.25308746099472 56.6836588550359 L187.83264054335655 57.62494376745075 L186.8913556309417 60.04539068508893 L185.95007071852683 57.62494376745075 L183.52962380088866 56.6836588550359 L185.95007071852683 55.74237394262105 Z" fill="#fff" opacity="0.73"/><path d="M215.5108399456367 140.4500106330961 L216.6052938304469 143.26432062260807 L219.41960381995887 144.35877450741827 L216.6052938304469 145.45322839222848 L215.5108399456367 148.26753838174045 L214.41638606082648 145.45322839222848 L211.6020760713145 144.35877450741827 L214.41638606082648 143.26432062260807 Z" fill="#fff" opacity="0.61"/><circle cx="185" cy="82" r="88" fill="hsla(275,85%,82%,0.13)"/><circle cx="185" cy="82" r="46" fill="hsla(275,90%,88%,1)"/><circle cx="170" cy="74" r="9.3" fill="hsla(275,55%,78%,1)" opacity="0.55"/><circle cx="198" cy="97" r="6.0" fill="hsla(275,55%,78%,1)" opacity="0.45"/><polygon points="0,400 0,232 48,164 97,197 145,160 193,247 242,193 290,229 290,400" fill="hsla(235,45%,20%,1)" opacity="0.9"/><g fill="hsla(230,50%,10%,1)">
<rect x="64.6607406895794" y="201.6" width="5.568" height="46.4"/>
<rect x="110.13274068957939" y="201.6" width="5.568" height="46.4"/>
<rect x="56.77274068957939" y="199.28" width="66.816" height="5.568" rx="1.8559999999999999"/>
<path d="M50.7407406895794 186.752 Q 90.1807406895794 179.328 129.6207406895794 186.752 L127.30074068957938 192.32 Q 90.1807406895794 185.824 53.0607406895794 192.32 Z"/>
</g><polygon points="0,400 0,280 48,229 97,254 145,223 193,279 242,241 290,295 290,400" fill="hsla(223,50%,14%,1)" opacity="0.95"/><polygon points="0,400 0,328 48,295 97,327 145,291 193,314 242,303 290,333 290,400" fill="hsla(235,55%,8%,1)" opacity="1"/><ellipse cx="16" cy="343" rx="2.8" ry="1.5" fill="hsla(325,90%,80%,0.33)" transform="rotate(167 16 343)"/><ellipse cx="191" cy="17" rx="4.5" ry="2.5" fill="hsla(325,90%,80%,0.65)" transform="rotate(129 191 17)"/><ellipse cx="90" cy="176" rx="3.6" ry="2.0" fill="hsla(325,90%,80%,0.44)" transform="rotate(171 90 176)"/><ellipse cx="193" cy="369" rx="3.1" ry="1.7" fill="hsla(325,90%,80%,0.53)" transform="rotate(242 193 369)"/><ellipse cx="198" cy="301" rx="5.1" ry="2.8" fill="hsla(325,90%,80%,0.34)" transform="rotate(2 198 301)"/><ellipse cx="148" cy="160" rx="5.5" ry="3.0" fill="hsla(325,90%,80%,0.71)" transform="rotate(142 148 160)"/><rect x="0" y="344" width="290" height="56" fill="rgba(12,6,24,0.6)"/><text x="50%" y="372" dominant-baseline="central" text-anchor="middle" font-family="Verdana,Geneva,sans-serif" font-size="26.4" fill="#f3e8ff" letter-spacing="0.5">Seirei Gensouki 2</text><rect x="0.5" y="0.5" width="289" height="399" fill="none" stroke="rgba(255,255,255,0.25)"/></svg>