<svg xmlns="http://www.w3.org/2000/svg" width="500" height="280" viewBox="0 0 500 280"><defs><linearGradient id="sky" x1="0" y1="0" x2="0" y2="1">
<stop offset="0" stop-color="hsla(221,55%,13%,1)"/>
<stop offset="0.55" stop-color="hsla(243,60%,30%,1)"/>
<stop offset="1" stop-color="hsla(269,72%,56%,1)"/>
</linearGradient></defs><rect width="500" height="280" fill="url(#sky)"/><circle cx="435.5" cy="70.0" r="1.4" fill="#fff" opacity="0.38"/><circle cx="144.9" cy="162.4" r="1.0" fill="#fff" opacity="0.75"/><circle cx="201.9" cy="24.6" r="1.4" fill="#fff" opacity="0.33"/><circle cx="210.7" cy="127.4" r="0.8" fill="#fff" opacity="0.70"/><circle cx="245.7" cy="76.3" r="0.5" fill="#fff" opacity="0.84"/><circle cx="278.2" cy="138.6" r="0.6" fill="#fff" opacity="0.83"/><circle cx="433.1" cy="10.0" r="0.5" fill="#fff" opacity="0.62"/><circle cx="52.5" cy="95.7" r="0.7" fill="#fff" opacity="0.69"/><circle cx="168.4" cy="35.8" r="0.6" fill="#fff" opacity="0.49"/><circle cx="110.6" cy="10.8" r="1.4" fill="#fff" opacity="0.28"/><circle cx="101.4" cy="165.6" r="0.4" fill="#fff" opacity="0.41"/><circle cx="313.2" cy="127.7" r="0.3" fill="#fff" opacity="0.31"/><circle cx="492.1" cy="121.3" r="1.0" fill="#fff" opacity="0.36"/><circle cx="371.6" cy="11.3" r="1.1" fill="#fff" opacity="0.47"/><circle cx="230.9" cy="121.7" r="1.5" fill="#fff" opacity="0.42"/><circle cx="71.5" cy="77.3" r="1.6" fill="#fff" opacity="0.42"/><circle cx="15.7" cy="118.0" r="1.2" fill="#fff" opacity="0.60"/><circle cx="152.8" cy="9.0" r="0.3" fill="#fff" opacity="0.52"/><circle cx="184.4" cy="81.5" r="1.2" fill="#fff" opacity="0.34"/><circle cx="345.8" cy="135.0" r="1.1" fill="#fff" opacity="0.48"/><circle cx="204.6" cy="128.8" r="1.5" fill="#fff" opacity="0.83"/><circle cx="63.6" cy="41.3" r="1.0" fill="#fff" opacity="0.74"/><circle cx="319.0" cy="136.9" r="0.8" fill="#fff" opacity="0.40"/><circle cx="250.8" cy="144.4" r="1.1" fill="#fff" opacity="0.63"/><circle cx="347.0" cy="63.9" r="0.8" fill="#fff" opacity="0.49"/><circle cx="388.0" cy="151.2" r="1.3" fill="#fff" opacity="0.44"/><circle cx="142.8" cy="106.1" r="0.4" fill="#fff" opacity="0.52"/><circle cx="153.5" cy="133.5" r="0.4" fill="#fff" opacity="0.84"/><circle cx="209.9" cy="172.8" r="0.5" fill="#fff" opacity="0.36"/><circle cx="240.3" cy="50.9" r="1.4" fill="#fff" opacity="0.80"/><circle cx="471.0" cy="65.1" r="0.9" fill="#fff" opacity="0.64"/><circle cx="329.8" cy="152.4" r="0.9" fill="#fff" opacity="0.69"/><circle cx="195.7" cy="13.6" r="0.4" fill="#fff" opacity="0.50"/><circle cx="221.8" cy="0.5" r="1.0" fill="#fff" opacity="0.30"/><circle cx="82.3" cy="11.5" r="0.5" fill="#fff" opacity="0.42"/><circle cx="120.4" cy="110.0" r="1.3" fill="#fff" opacity="0.82"/><circle cx="498.3" cy="26.1" r="0.8" fill="#fff" opacity="0.60"/><circle cx="76.7" cy="125.0" r="0.3" fill="#fff" opacity="0.51"/><circle cx="374.9" cy="48.7" r="1.6" fill="#fff" opacity="0.85"/><circle cx="87.2" cy="132.7" r="0.4" fill="#fff" opacity="0.35"/><circle cx="259.3" cy="153.8" r="1.3" fill="#fff" opacity="0.29"/><circle cx="348.8" cy="77.4" r="1.0" fill="#fff" opacity="0.42"/><circle cx="22.8" cy="49.9" r="0.5" fill="#fff" opacity="0.32"/><circle cx="169.6" cy="53.9" r="1.5" fill="#fff" opacity="0.79"/><circle cx="224.5" cy="28.6" r="0.5" fill="#fff" opacity="0.72"/><circle cx="37.1" cy="91.2" r="0.8" fill="#fff" opacity="0.39"/><circle cx="132.3" cy="15.8" r="1.3" fill="#fff" opacity="0.39"/><circle cx="340.7" cy="119.6" r="0.7" fill="#fff" opacity="0.36"/><circle cx="399.6" cy="22.7" r="0.6" fill="#fff" opacity="0.66"/><circle cx="252.7" cy="123.7" r="1.2" fill="#fff" opacity="0.64"/><circle cx="398.1" cy="85.8" r="1.6" fill="#fff" opacity="0.72"/><circle cx="263.5" cy="131.1" r="0.7" fill="#fff" opacity="0.35"/><circle cx="207.2" cy="45.2" r="1.2" fill="#fff" opacity="0.45"/><circle cx="374.6" cy="39.9" r="1.6" fill="#fff" opacity="0.45"/><circle cx="259.4" cy="27.6" r="1.0" fill="#fff" opacity="0.63"/><circle cx="447.1" cy="150.2" r="0.4" fill="#fff" opacity="0.65"/><circle cx="142.3" cy="72.6" r="1.0" fill="#fff" opacity="0.54"/><circle cx="206.3" cy="144.6" r="0.8" fill="#fff" opacity="0.26"/><path d="M56.26032501459122 87.36387292901054 L58.1039062657021 92.1045104318671 L62.84454376855865 93.94809168297797 L58.1039062657021 95.79167293408885 L56.26032501459122 100.53231043694541 L54.41674376348033 95.79167293408885 L49.67610626062378 93.94809168297797 L54.41674376348033 92.1045104318671 Z" fill="#fff" opacity="0.73"/><path d="M403.1395451165736 125.38155017932877 L404.8312525084801 129.73165490137413 L409.18135723052546 131.42336229328066 L404.8312525084801 133.1150696851872 L403.1395451165736 137.46517440723255 L401.44783772466707 133.1150696851872 L397.0977330026217 131.42336229328066 L401.44783772466707 129.73165490137413 Z" fill="#fff" opacity="0.78"/><path d="M429.0499361231923 124.77800080599263 L430.4081162367575 128.27046395516024 L433.9005793859251 129.6286440687254 L430.4081162367575 130.98682418229058 L429.0499361231923 134.47928733145818 L427.6917560096271 130.98682418229058 L424.19929286045954 129.6286440687254 L427.6917560096271 128.27046395516024 Z" fill="#fff" opacity="0.75"/><path d="M131.58788112923503 117.32002926571295 L132.91053004140034 120.72112646842375 L136.31162724411115 122.04377538058907 L132.91053004140034 123.36642429275439 L131.58788112923503 126.76752149546519 L130.26523221706972 123.36642429275439 L126.86413501435891 122.04377538058907 L130.26523221706972 120.72112646842375 Z" fill="#fff" opacity="0.87"/><circle cx="341" cy="76" r="85" fill="hsla(261,85%,82%,0.13)"/><circle cx="341" cy="76" r="45" fill="hsla(261,90%,88%,1)"/><circle cx="327" cy="68" r="9.0" fill="hsla(261,55%,78%,1)" opacity="0.55"/><circle cx="353" cy="90" r="5.8" fill="hsla(261,55%,78%,1)" opacity="0.45"/><polygon points="0,280 0,162 83,142 167,127 250,112 333,150 417,117 500,173 500,280" fill="hsla(221,45%,20%,1)" opacity="0.9"/><g fill="hsla(216,50%,10%,1)">
<rect x="123.83995428368449" y="128.79999999999998" width="5.376" height="44.800000000000004"/>
<rect x="167.7439542836845" y="128.79999999999998" width="5.376" height="44.800000000000004"/>
<rect x="116.22395428368449" y="126.55999999999999" width="64.512" height="5.376" rx="1.7920000000000003"/>
<path d="M110.39995428368448 114.46399999999998 Q 148.4799542836845 107.29599999999999 186.5599542836845 114.46399999999998 L184.3199542836845 119.83999999999999 Q 148.4799542836845 113.56799999999998 112.63995428368449 119.83999999999999 Z"/>
</g><polygon points="0,280 0,196 83,155 167,208 250,157 333,185 417,167 500,205 500,280" fill="hsla(209,50%,14%,1)" opacity="0.95"/><polygon points="0,280 0,230 83,210 167,223 250,205 333,231 417,218 500,231 500,280" fill="hsla(221,55%,8%,1)" opacity="1"/><ellipse cx="424" cy="245" rx="2.3" ry="1.2" fill="hsla(325,90%,80%,0.71)" transform="rotate(27 424 245)"/><ellipse cx="150" cy="277" rx="3.1" ry="1.7" fill="hsla(325,90%,80%,0.72)" transform="rotate(1 150 277)"/><ellipse cx="161" cy="143" rx="3.2" ry="1.8" fill="hsla(325,90%,80%,0.40)" transform="rotate(345 161 143)"/><ellipse cx="341" cy="252" rx="2.0" ry="1.1" fill="hsla(325,90%,80%,0.62)" transform="rotate(241 341 252)"/><ellipse cx="436" cy="229" rx="5.9" ry="3.2" fill="hsla(325,90%,80%,0.45)" transform="rotate(215 436 229)"/><ellipse cx="348" cy="245" rx="3.5" ry="1.9" fill="hsla(325,90%,80%,0.53)" transform="rotate(252 348 245)"/><ellipse cx="235" cy="11" rx="3.9" ry="2.2" fill="hsla(325,90%,80%,0.52)" transform="rotate(117 235 11)"/><ellipse cx="342" cy="70" rx="5.6" ry="3.1" fill="hsla(325,90%,80%,0.32)" transform="rotate(215 342 70)"/><ellipse cx="346" cy="221" rx="5.8" ry="3.2" fill="hsla(325,90%,80%,0.71)" transform="rotate(164 346 221)"/><ellipse cx="436" cy="266" rx="2.3" ry="1.3" fill="hsla(325,90%,80%,0.35)" transform="rotate(96 436 266)"/><text x="50%" y="146" text-anchor="middle" font-family="Georgia,'Times New Roman',serif" font-weight="bold" font-size="95" fill="#fff" paint-order="stroke" stroke="hsla(221,60%,18%,0.85)" stroke-width="7.6">EP 6</text><rect x="0" y="241" width="500" height="39" fill="rgba(12,6,24,0.6)"/><text x="50%" y="260" dominant-baseline="central" text-anchor="middle" font-family="Verdana,Geneva,sans-serif" font-size="20.4" fill="#f3e8ff" letter-spacing="0.5">Isekai Nonbiri Nouka 2</text><rect x="0.5" y="0.5" width="499" height="279" fill="none" stroke="rgba(255,255,255,0.25)"/></svg>