<svg xmlns="http://www.w3.org/2000/svg" width="420" height="280" viewBox="0 0 420 280"><defs><linearGradient id="sky" x1="0" y1="0" x2="0" y2="1">
<stop offset="0" stop-color="hsla(243,55%,13%,1)"/>
<stop offset="0.55" stop-color="hsla(265,60%,30%,1)"/>
<stop offset="1" stop-color="hsla(291,72%,56%,1)"/>
</linearGradient></defs><rect width="420" height="280" fill="url(#sky)"/><circle cx="254.5" cy="111.5" r="0.8" fill="#fff" opacity="0.84"/><circle cx="83.5" cy="3.8" r="0.5" fill="#fff" opacity="0.69"/><circle cx="263.8" cy="70.0" r="1.2" fill="#fff" opacity="0.62"/><circle cx="385.3" cy="96.8" r="1.5" fill="#fff" opacity="0.75"/><circle cx="334.2" cy="22.8" r="0.5" fill="#fff" opacity="0.38"/><circle cx="103.4" cy="41.3" r="0.4" fill="#fff" opacity="0.33"/><circle cx="329.7" cy="10.7" r="0.4" fill="#fff" opacity="0.81"/><circle cx="231.3" cy="84.7" r="1.0" fill="#fff" opacity="0.58"/><circle cx="223.2" cy="3.5" r="0.7" fill="#fff" opacity="0.30"/><circle cx="213.1" cy="87.0" r="0.8" fill="#fff" opacity="0.54"/><circle cx="225.6" cy="71.7" r="0.5" fill="#fff" opacity="0.79"/><circle cx="28.1" cy="130.8" r="1.6" fill="#fff" opacity="0.35"/><circle cx="415.4" cy="134.5" r="0.8" fill="#fff" opacity="0.42"/><circle cx="96.5" cy="14.7" r="0.9" fill="#fff" opacity="0.42"/><circle cx="290.5" cy="153.0" r="1.1" fill="#fff" opacity="0.60"/><circle cx="266.2" cy="59.3" r="1.0" fill="#fff" opacity="0.59"/><circle cx="340.4" cy="72.9" r="0.8" fill="#fff" opacity="0.54"/><circle cx="401.0" cy="101.0" r="0.4" fill="#fff" opacity="0.48"/><circle cx="180.0" cy="39.8" r="1.4" fill="#fff" opacity="0.82"/><circle cx="50.2" cy="146.2" r="1.4" fill="#fff" opacity="0.55"/><circle cx="384.6" cy="16.6" r="0.9" fill="#fff" opacity="0.41"/><circle cx="138.9" cy="81.5" r="0.6" fill="#fff" opacity="0.80"/><circle cx="46.7" cy="20.4" r="1.1" fill="#fff" opacity="0.26"/><circle cx="380.1" cy="2.0" r="0.6" fill="#fff" opacity="0.61"/><circle cx="132.7" cy="108.5" r="0.7" fill="#fff" opacity="0.42"/><circle cx="388.1" cy="116.7" r="0.4" fill="#fff" opacity="0.55"/><circle cx="42.3" cy="116.2" r="0.3" fill="#fff" opacity="0.73"/><circle cx="292.4" cy="57.5" r="1.5" fill="#fff" opacity="0.51"/><circle cx="388.5" cy="12.5" r="1.6" fill="#fff" opacity="0.40"/><circle cx="13.9" cy="21.2" r="1.0" fill="#fff" opacity="0.37"/><circle cx="238.6" cy="5.7" r="0.5" fill="#fff" opacity="0.56"/><circle cx="141.4" cy="99.8" r="0.7" fill="#fff" opacity="0.61"/><circle cx="156.8" cy="53.4" r="1.1" fill="#fff" opacity="0.30"/><circle cx="210.1" cy="56.1" r="0.7" fill="#fff" opacity="0.63"/><circle cx="128.4" cy="163.5" r="0.4" fill="#fff" opacity="0.55"/><circle cx="260.6" cy="63.9" r="1.1" fill="#fff" opacity="0.70"/><circle cx="344.1" cy="99.1" r="1.3" fill="#fff" opacity="0.78"/><circle cx="220.1" cy="158.4" r="0.9" fill="#fff" opacity="0.29"/><circle cx="227.1" cy="48.7" r="0.9" fill="#fff" opacity="0.49"/><circle cx="43.8" cy="130.3" r="1.4" fill="#fff" opacity="0.69"/><circle cx="320.0" cy="5.5" r="0.7" fill="#fff" opacity="0.27"/><circle cx="198.3" cy="38.9" r="0.9" fill="#fff" opacity="0.48"/><circle cx="314.0" cy="112.0" r="1.0" fill="#fff" opacity="0.33"/><circle cx="386.2" cy="128.6" r="0.4" fill="#fff" opacity="0.58"/><circle cx="358.7" cy="61.2" r="0.8" fill="#fff" opacity="0.41"/><circle cx="291.4" cy="147.8" r="1.2" fill="#fff" opacity="0.39"/><circle cx="193.3" cy="157.2" r="1.3" fill="#fff" opacity="0.84"/><circle cx="246.2" cy="155.6" r="0.4" fill="#fff" opacity="0.55"/><circle cx="299.7" cy="43.7" r="0.3" fill="#fff" opacity="0.69"/><path d="M139.41872189752758 21.57054642494768 L141.5190384288877 26.97136036273092 L146.91985236667097 29.07167689409107 L141.5190384288877 31.17199342545122 L139.41872189752758 36.57280736323446 L137.31840536616744 31.17199342545122 L131.91759142838418 29.07167689409107 L137.31840536616744 26.97136036273092 Z" fill="#fff" opacity="0.53"/><path d="M35.57709482498467 100.20017342455685 L37.659509511627256 105.55495404735207 L43.01429013442248 107.63736873399466 L37.659509511627256 109.71978342063726 L35.57709482498467 115.07456404343247 L33.49468013834208 109.71978342063726 L28.13989951554686 107.63736873399466 L33.49468013834208 105.55495404735207 Z" fill="#fff" opacity="0.80"/><path d="M345.9041406121105 118.10582504887134 L347.25592896804216 121.5818522498384 L350.7319561690092 122.93364060577005 L347.25592896804216 124.2854289617017 L345.9041406121105 127.76145616266876 L344.55235225617884 124.2854289617017 L341.0763250552118 122.93364060577005 L344.55235225617884 121.5818522498384 Z" fill="#fff" opacity="0.57"/><circle cx="320" cy="53" r="85" fill="hsla(283,85%,82%,0.13)"/><circle cx="320" cy="53" r="45" fill="hsla(283,90%,88%,1)"/><circle cx="306" cy="45" r="9.0" fill="hsla(283,55%,78%,1)" opacity="0.55"/><circle cx="333" cy="67" r="5.8" fill="hsla(283,55%,78%,1)" opacity="0.45"/><polygon points="0,280 0,162 70,91 140,176 210,138 280,174 350,143 420,168 420,280" fill="hsla(243,45%,20%,1)" opacity="0.9"/><g fill="hsla(238,50%,10%,1)">
<rect x="175.1396201283112" y="128.79999999999998" width="5.376" height="44.800000000000004"/>
<rect x="219.04362012831123" y="128.79999999999998" width="5.376" height="44.800000000000004"/>
<rect x="167.52362012831122" y="126.55999999999999" width="64.512" height="5.376" rx="1.7920000000000003"/>
<path d="M161.6996201283112 114.46399999999998 Q 199.77962012831122 107.29599999999999 237.85962012831124 114.46399999999998 L235.61962012831123 119.83999999999999 Q 199.77962012831122 113.56799999999998 163.93962012831122 119.83999999999999 Z"/>
</g><polygon points="0,280 0,196 70,167 140,191 210,155 280,193 350,182 420,178 420,280" fill="hsla(231,50%,14%,1)" opacity="0.95"/><polygon points="0,280 0,230 70,204 140,212 210,212 280,215 350,211 420,230 420,280" fill="hsla(243,55%,8%,1)" opacity="1"/><ellipse cx="103" cy="17" rx="5.3" ry="2.9" fill="hsla(325,90%,80%,0.61)" transform="rotate(334 103 17)"/><ellipse cx="328" cy="125" rx="5.1" ry="2.8" fill="hsla(325,90%,80%,0.38)" transform="rotate(306 328 125)"/><ellipse cx="99" cy="177" rx="3.0" ry="1.7" fill="hsla(325,90%,80%,0.49)" transform="rotate(103 99 177)"/><ellipse cx="62" cy="258" rx="5.7" ry="3.1" fill="hsla(325,90%,80%,0.58)" transform="rotate(63 62 258)"/><ellipse cx="174" cy="228" rx="4.6" ry="2.5" fill="hsla(325,90%,80%,0.63)" transform="rotate(80 174 228)"/><ellipse cx="322" cy="15" rx="4.0" ry="2.2" fill="hsla(325,90%,80%,0.54)" transform="rotate(161 322 15)"/><ellipse cx="254" cy="55" rx="3.8" ry="2.1" fill="hsla(325,90%,80%,0.53)" transform="rotate(21 254 55)"/><ellipse cx="353" cy="53" rx="5.7" ry="3.1" fill="hsla(325,90%,80%,0.47)" transform="rotate(127 353 53)"/><text x="50%" y="146" text-anchor="middle" font-family="Georgia,'Times New Roman',serif" font-weight="bold" font-size="95" fill="#fff" paint-order="stroke" stroke="hsla(243,60%,18%,0.85)" stroke-width="7.6">EP 5</text><rect x="0" y="241" width="420" height="39" fill="rgba(12,6,24,0.6)"/><text x="50%" y="260" dominant-baseline="central" text-anchor="middle" font-family="Verdana,Geneva,sans-serif" font-size="20.4" fill="#f3e8ff" letter-spacing="0.5">Isekai Nonbiri Nouka 2</text><rect x="0.5" y="0.5" width="419" height="279" fill="none" stroke="rgba(255,255,255,0.25)"/></svg>