<svg xmlns="http://www.w3.org/2000/svg" width="290" height="400" viewBox="0 0 290 400"><defs><linearGradient id="sky" x1="0" y1="0" x2="0" y2="1">
<stop offset="0" stop-color="hsla(295,55%,13%,1)"/>
<stop offset="0.55" stop-color="hsla(317,60%,30%,1)"/>
<stop offset="1" stop-color="hsla(343,72%,56%,1)"/>
</linearGradient></defs><rect width="290" height="400" fill="url(#sky)"/><circle cx="267.4" cy="110.8" r="0.4" fill="#fff" opacity="0.74"/><circle cx="167.6" cy="218.4" r="1.1" fill="#fff" opacity="0.66"/><circle cx="276.9" cy="127.9" r="0.6" fill="#fff" opacity="0.34"/><circle cx="271.3" cy="223.9" r="1.4" fill="#fff" opacity="0.83"/><circle cx="99.4" cy="153.8" r="0.5" fill="#fff" opacity="0.41"/><circle cx="217.0" cy="181.7" r="0.5" fill="#fff" opacity="0.56"/><circle cx="7.2" cy="114.6" r="1.5" fill="#fff" opacity="0.47"/><circle cx="283.4" cy="83.7" r="1.5" fill="#fff" opacity="0.34"/><circle cx="180.7" cy="82.9" r="0.9" fill="#fff" opacity="0.44"/><circle cx="277.8" cy="192.5" r="0.8" fill="#fff" opacity="0.26"/><circle cx="80.9" cy="2.8" r="0.9" fill="#fff" opacity="0.60"/><circle cx="114.6" cy="30.7" r="1.5" fill="#fff" opacity="0.73"/><circle cx="88.7" cy="51.5" r="0.5" fill="#fff" opacity="0.29"/><circle cx="49.2" cy="237.0" r="0.5" fill="#fff" opacity="0.77"/><circle cx="188.4" cy="146.7" r="0.9" fill="#fff" opacity="0.33"/><circle cx="277.2" cy="98.7" r="1.3" fill="#fff" opacity="0.57"/><circle cx="48.2" cy="91.3" r="1.1" fill="#fff" opacity="0.61"/><circle cx="190.1" cy="183.1" r="1.0" fill="#fff" opacity="0.47"/><circle cx="205.1" cy="104.4" r="0.4" fill="#fff" opacity="0.77"/><circle cx="185.7" cy="149.0" r="0.5" fill="#fff" opacity="0.61"/><circle cx="6.6" cy="3.8" r="1.2" fill="#fff" opacity="0.28"/><circle cx="234.8" cy="168.5" r="0.8" fill="#fff" opacity="0.57"/><circle cx="137.0" cy="17.3" r="1.4" fill="#fff" opacity="0.38"/><circle cx="133.0" cy="10.2" r="0.9" fill="#fff" opacity="0.26"/><circle cx="159.8" cy="243.6" r="1.4" fill="#fff" opacity="0.64"/><circle cx="278.6" cy="243.8" r="0.9" fill="#fff" opacity="0.31"/><circle cx="66.1" cy="6.1" r="0.9" fill="#fff" opacity="0.40"/><circle cx="75.9" cy="113.9" r="0.3" fill="#fff" opacity="0.58"/><circle cx="27.6" cy="73.8" r="1.2" fill="#fff" opacity="0.75"/><circle cx="53.7" cy="16.2" r="1.3" fill="#fff" opacity="0.63"/><circle cx="96.4" cy="61.5" r="0.8" fill="#fff" opacity="0.70"/><circle cx="160.5" cy="145.8" r="1.3" fill="#fff" opacity="0.74"/><circle cx="139.4" cy="185.8" r="0.6" fill="#fff" opacity="0.40"/><circle cx="34.2" cy="28.9" r="1.4" fill="#fff" opacity="0.60"/><circle cx="9.2" cy="184.4" r="0.5" fill="#fff" opacity="0.40"/><circle cx="88.2" cy="177.6" r="0.7" fill="#fff" opacity="0.46"/><circle cx="239.9" cy="110.8" r="0.4" fill="#fff" opacity="0.76"/><circle cx="222.4" cy="164.8" r="0.5" fill="#fff" opacity="0.45"/><circle cx="79.0" cy="29.0" r="1.1" fill="#fff" opacity="0.33"/><circle cx="220.9" cy="62.2" r="0.7" fill="#fff" opacity="0.63"/><circle cx="104.6" cy="95.1" r="1.4" fill="#fff" opacity="0.81"/><circle cx="93.9" cy="33.8" r="0.7" fill="#fff" opacity="0.40"/><circle cx="148.8" cy="34.6" r="0.7" fill="#fff" opacity="0.65"/><circle cx="76.9" cy="69.2" r="1.1" fill="#fff" opacity="0.38"/><circle cx="65.6" cy="247.5" r="0.8" fill="#fff" opacity="0.40"/><circle cx="283.7" cy="104.2" r="0.9" fill="#fff" opacity="0.72"/><circle cx="156.0" cy="76.7" r="1.0" fill="#fff" opacity="0.29"/><circle cx="16.6" cy="32.7" r="1.5" fill="#fff" opacity="0.67"/><path d="M87.08537024911493 142.97236073575914 L88.44939451437443 146.4798517035693 L91.95688548218459 147.8438759688288 L88.44939451437443 149.2079002340883 L87.08537024911493 152.71539120189846 L85.72134598385543 149.2079002340883 L82.21385501604527 147.8438759688288 L85.72134598385543 146.4798517035693 Z" fill="#fff" opacity="0.51"/><path d="M211.2816786626354 80.20919562596828 L212.89067484006284 84.34661436792463 L217.0280935820192 85.9556105453521 L212.89067484006284 87.56460672277957 L211.2816786626354 91.70202546473593 L209.67268248520793 87.56460672277957 L205.53526374325156 85.9556105453521 L209.67268248520793 84.34661436792463 Z" fill="#fff" opacity="0.70"/><circle cx="191" cy="97" r="88" fill="hsla(335,85%,82%,0.13)"/><circle cx="191" cy="97" r="46" fill="hsla(335,90%,88%,1)"/><circle cx="176" cy="89" r="9.3" fill="hsla(335,55%,78%,1)" opacity="0.55"/><circle cx="204" cy="112" r="6.0" fill="hsla(335,55%,78%,1)" opacity="0.45"/><polygon points="0,400 0,232 48,203 97,210 145,200 193,180 242,141 290,186 290,400" fill="hsla(295,45%,20%,1)" opacity="0.9"/><g fill="hsla(290,50%,10%,1)">
<rect x="9.721255948971955" y="201.6" width="5.568" height="46.4"/>
<rect x="55.19325594897195" y="201.6" width="5.568" height="46.4"/>
<rect x="1.8332559489719529" y="199.28" width="66.816" height="5.568" rx="1.8559999999999999"/>
<path d="M-4.198744051028044 186.752 Q 35.241255948971954 179.328 74.68125594897195 186.752 L72.36125594897194 192.32 Q 35.241255948971954 185.824 -1.8787440510280433 192.32 Z"/>
</g><polygon points="0,400 0,280 48,221 97,288 145,198 193,287 242,218 290,255 290,400" fill="hsla(283,50%,14%,1)" opacity="0.95"/><polygon points="0,400 0,328 48,310 97,317 145,312 193,331 242,296 290,305 290,400" fill="hsla(295,55%,8%,1)" opacity="1"/><ellipse cx="65" cy="115" rx="5.0" ry="2.7" fill="hsla(325,90%,80%,0.67)" transform="rotate(40 65 115)"/><ellipse cx="149" cy="221" rx="3.7" ry="2.1" fill="hsla(325,90%,80%,0.47)" transform="rotate(279 149 221)"/><ellipse cx="218" cy="40" rx="3.6" ry="2.0" fill="hsla(325,90%,80%,0.42)" transform="rotate(66 218 40)"/><ellipse cx="58" cy="162" rx="4.9" ry="2.7" fill="hsla(325,90%,80%,0.56)" transform="rotate(210 58 162)"/><ellipse cx="42" cy="260" rx="5.0" ry="2.8" fill="hsla(325,90%,80%,0.36)" transform="rotate(270 42 260)"/><ellipse cx="274" cy="251" rx="2.2" ry="1.2" fill="hsla(325,90%,80%,0.45)" transform="rotate(142 274 251)"/><rect x="0" y="344" width="290" height="56" fill="rgba(12,6,24,0.6)"/><text x="50%" y="372" dominant-baseline="central" text-anchor="middle" font-family="Verdana,Geneva,sans-serif" font-size="19.5" fill="#f3e8ff" letter-spacing="0.5">BanG Dream! Garupa☆Pico</text><rect x="0.5" y="0.5" width="289" height="399" fill="none" stroke="rgba(255,255,255,0.25)"/></svg>