<svg xmlns="http://www.w3.org/2000/svg" width="290" height="400" viewBox="0 0 290 400"><defs><linearGradient id="sky" x1="0" y1="0" x2="0" y2="1">
<stop offset="0" stop-color="hsla(208,55%,13%,1)"/>
<stop offset="0.55" stop-color="hsla(230,60%,30%,1)"/>
<stop offset="1" stop-color="hsla(256,72%,56%,1)"/>
</linearGradient></defs><rect width="290" height="400" fill="url(#sky)"/><circle cx="251.9" cy="78.3" r="1.0" fill="#fff" opacity="0.35"/><circle cx="206.8" cy="178.8" r="1.0" fill="#fff" opacity="0.51"/><circle cx="202.4" cy="153.5" r="1.5" fill="#fff" opacity="0.65"/><circle cx="103.6" cy="190.6" r="0.5" fill="#fff" opacity="0.84"/><circle cx="154.1" cy="92.7" r="1.0" fill="#fff" opacity="0.32"/><circle cx="39.2" cy="229.4" r="0.7" fill="#fff" opacity="0.83"/><circle cx="119.7" cy="211.5" r="1.0" fill="#fff" opacity="0.78"/><circle cx="91.8" cy="78.2" r="0.7" fill="#fff" opacity="0.41"/><circle cx="263.0" cy="174.6" r="1.3" fill="#fff" opacity="0.35"/><circle cx="262.1" cy="172.0" r="1.3" fill="#fff" opacity="0.69"/><circle cx="229.2" cy="226.0" r="0.4" fill="#fff" opacity="0.74"/><circle cx="30.0" cy="139.1" r="0.8" fill="#fff" opacity="0.39"/><circle cx="232.6" cy="141.5" r="1.1" fill="#fff" opacity="0.39"/><circle cx="249.2" cy="24.6" r="1.3" fill="#fff" opacity="0.38"/><circle cx="133.1" cy="118.5" r="0.6" fill="#fff" opacity="0.79"/><circle cx="130.1" cy="226.4" r="0.7" fill="#fff" opacity="0.48"/><circle cx="270.1" cy="131.4" r="1.5" fill="#fff" opacity="0.78"/><circle cx="40.6" cy="145.6" r="0.9" fill="#fff" opacity="0.74"/><circle cx="285.4" cy="232.1" r="0.8" fill="#fff" opacity="0.80"/><circle cx="264.8" cy="14.0" r="0.7" fill="#fff" opacity="0.43"/><circle cx="283.7" cy="60.8" r="0.8" fill="#fff" opacity="0.64"/><circle cx="70.8" cy="195.1" r="0.4" fill="#fff" opacity="0.30"/><circle cx="270.8" cy="45.2" r="1.4" fill="#fff" opacity="0.41"/><circle cx="275.2" cy="190.6" r="0.4" fill="#fff" opacity="0.78"/><circle cx="191.0" cy="74.3" r="0.5" fill="#fff" opacity="0.50"/><circle cx="27.1" cy="80.6" r="0.5" fill="#fff" opacity="0.33"/><circle cx="272.0" cy="108.8" r="1.6" fill="#fff" opacity="0.47"/><circle cx="279.1" cy="180.8" r="1.2" fill="#fff" opacity="0.67"/><circle cx="227.3" cy="1.7" r="0.6" fill="#fff" opacity="0.64"/><circle cx="27.4" cy="158.2" r="0.7" fill="#fff" opacity="0.74"/><circle cx="218.4" cy="15.9" r="0.4" fill="#fff" opacity="0.75"/><circle cx="109.2" cy="82.8" r="1.5" fill="#fff" opacity="0.44"/><circle cx="93.3" cy="55.7" r="1.0" fill="#fff" opacity="0.70"/><circle cx="58.6" cy="194.4" r="1.1" fill="#fff" opacity="0.36"/><circle cx="94.2" cy="91.3" r="1.1" fill="#fff" opacity="0.79"/><circle cx="200.9" cy="125.6" r="1.5" fill="#fff" opacity="0.57"/><circle cx="133.3" cy="41.4" r="1.2" fill="#fff" opacity="0.46"/><circle cx="284.5" cy="63.4" r="1.0" fill="#fff" opacity="0.67"/><circle cx="246.2" cy="104.9" r="0.7" fill="#fff" opacity="0.68"/><circle cx="161.0" cy="127.0" r="1.5" fill="#fff" opacity="0.74"/><circle cx="193.8" cy="54.1" r="0.8" fill="#fff" opacity="0.65"/><circle cx="194.0" cy="196.7" r="0.4" fill="#fff" opacity="0.60"/><circle cx="242.2" cy="217.4" r="1.4" fill="#fff" opacity="0.61"/><circle cx="235.3" cy="190.7" r="0.9" fill="#fff" opacity="0.54"/><circle cx="220.9" cy="184.0" r="0.8" fill="#fff" opacity="0.69"/><circle cx="69.4" cy="48.7" r="1.1" fill="#fff" opacity="0.33"/><circle cx="48.9" cy="189.3" r="0.9" fill="#fff" opacity="0.49"/><circle cx="166.9" cy="163.9" r="0.6" fill="#fff" opacity="0.32"/><path d="M279.0200037113391 175.27212890028022 L280.1772228391934 178.24783522904852 L283.1529291679617 179.40505435690284 L280.1772228391934 180.56227348475716 L279.0200037113391 183.53797981352545 L277.86278458348477 180.56227348475716 L274.88707825471647 179.40505435690284 L277.86278458348477 178.24783522904852 Z" fill="#fff" opacity="0.81"/><path d="M134.34523426694795 23.358636849327013 L135.4377904508356 26.168067036466674 L138.24722063797526 27.26062322035432 L135.4377904508356 28.353179404241963 L134.34523426694795 31.162609591381624 L133.25267808306032 28.353179404241963 L130.44324789592065 27.26062322035432 L133.25267808306032 26.168067036466674 Z" fill="#fff" opacity="0.50"/><circle cx="185" cy="91" r="88" fill="hsla(248,85%,82%,0.13)"/><circle cx="185" cy="91" r="46" fill="hsla(248,90%,88%,1)"/><circle cx="170" cy="83" r="9.3" fill="hsla(248,55%,78%,1)" opacity="0.55"/><circle cx="198" cy="106" r="6.0" fill="hsla(248,55%,78%,1)" opacity="0.45"/><polygon points="0,400 0,232 48,166 97,190 145,185 193,228 242,170 290,192 290,400" fill="hsla(208,45%,20%,1)" opacity="0.9"/><g fill="hsla(203,50%,10%,1)">
<rect x="148.66643809291534" y="201.6" width="5.568" height="46.4"/>
<rect x="194.13843809291535" y="201.6" width="5.568" height="46.4"/>
<rect x="140.77843809291534" y="199.28" width="66.816" height="5.568" rx="1.8559999999999999"/>
<path d="M134.74643809291535 186.752 Q 174.18643809291535 179.328 213.62643809291535 186.752 L211.30643809291536 192.32 Q 174.18643809291535 185.824 137.06643809291535 192.32 Z"/>
</g><polygon points="0,400 0,280 48,232 97,236 145,225 193,237 242,199 290,271 290,400" fill="hsla(196,50%,14%,1)" opacity="0.95"/><polygon points="0,400 0,328 48,293 97,313 145,284 193,335 242,288 290,308 290,400" fill="hsla(208,55%,8%,1)" opacity="1"/><ellipse cx="171" cy="300" rx="4.0" ry="2.2" fill="hsla(325,90%,80%,0.56)" transform="rotate(354 171 300)"/><ellipse cx="177" cy="223" rx="3.3" ry="1.8" fill="hsla(325,90%,80%,0.70)" transform="rotate(198 177 223)"/><ellipse cx="57" cy="25" rx="3.0" ry="1.7" fill="hsla(325,90%,80%,0.43)" transform="rotate(169 57 25)"/><ellipse cx="107" cy="215" rx="2.9" ry="1.6" fill="hsla(325,90%,80%,0.68)" transform="rotate(117 107 215)"/><ellipse cx="206" cy="213" rx="3.7" ry="2.1" fill="hsla(325,90%,80%,0.32)" transform="rotate(16 206 213)"/><ellipse cx="168" cy="225" rx="3.4" ry="1.9" fill="hsla(325,90%,80%,0.58)" transform="rotate(150 168 225)"/><rect x="0" y="344" width="290" height="56" fill="rgba(12,6,24,0.6)"/><text x="50%" y="372" dominant-baseline="central" text-anchor="middle" font-family="Verdana,Geneva,sans-serif" font-size="23.7" fill="#f3e8ff" letter-spacing="0.5">Jitsu wa Watashi wa</text><rect x="0.5" y="0.5" width="289" height="399" fill="none" stroke="rgba(255,255,255,0.25)"/></svg>