<svg xmlns="http://www.w3.org/2000/svg" width="290" height="400" viewBox="0 0 290 400"><defs><linearGradient id="sky" x1="0" y1="0" x2="0" y2="1">
<stop offset="0" stop-color="hsla(219,55%,13%,1)"/>
<stop offset="0.55" stop-color="hsla(241,60%,30%,1)"/>
<stop offset="1" stop-color="hsla(267,72%,56%,1)"/>
</linearGradient></defs><rect width="290" height="400" fill="url(#sky)"/><circle cx="88.5" cy="36.5" r="0.5" fill="#fff" opacity="0.61"/><circle cx="69.1" cy="49.4" r="0.8" fill="#fff" opacity="0.27"/><circle cx="6.9" cy="196.1" r="1.3" fill="#fff" opacity="0.43"/><circle cx="145.2" cy="35.8" r="0.3" fill="#fff" opacity="0.79"/><circle cx="104.9" cy="30.5" r="0.8" fill="#fff" opacity="0.76"/><circle cx="217.2" cy="235.3" r="0.9" fill="#fff" opacity="0.45"/><circle cx="64.5" cy="63.2" r="1.3" fill="#fff" opacity="0.36"/><circle cx="124.1" cy="184.3" r="0.8" fill="#fff" opacity="0.42"/><circle cx="12.6" cy="237.4" r="1.0" fill="#fff" opacity="0.77"/><circle cx="241.6" cy="233.9" r="0.6" fill="#fff" opacity="0.34"/><circle cx="256.3" cy="199.6" r="0.5" fill="#fff" opacity="0.31"/><circle cx="103.3" cy="105.9" r="0.4" fill="#fff" opacity="0.26"/><circle cx="94.4" cy="218.2" r="1.5" fill="#fff" opacity="0.27"/><circle cx="156.9" cy="66.5" r="0.9" fill="#fff" opacity="0.39"/><circle cx="53.6" cy="10.4" r="1.1" fill="#fff" opacity="0.72"/><circle cx="276.2" cy="9.1" r="0.7" fill="#fff" opacity="0.76"/><circle cx="11.4" cy="187.3" r="0.7" fill="#fff" opacity="0.78"/><circle cx="248.9" cy="163.5" r="1.4" fill="#fff" opacity="0.34"/><circle cx="163.8" cy="119.9" r="0.8" fill="#fff" opacity="0.58"/><circle cx="209.7" cy="209.1" r="0.9" fill="#fff" opacity="0.46"/><circle cx="198.8" cy="159.7" r="1.4" fill="#fff" opacity="0.33"/><circle cx="149.7" cy="15.8" r="0.6" fill="#fff" opacity="0.39"/><circle cx="156.0" cy="30.8" r="0.7" fill="#fff" opacity="0.55"/><circle cx="240.4" cy="27.6" r="0.7" fill="#fff" opacity="0.80"/><circle cx="71.3" cy="90.4" r="1.4" fill="#fff" opacity="0.66"/><circle cx="234.1" cy="50.5" r="0.4" fill="#fff" opacity="0.67"/><circle cx="147.1" cy="247.6" r="0.8" fill="#fff" opacity="0.51"/><circle cx="259.8" cy="163.7" r="0.7" fill="#fff" opacity="0.77"/><circle cx="288.9" cy="14.5" r="0.7" fill="#fff" opacity="0.73"/><circle cx="114.5" cy="34.1" r="1.3" fill="#fff" opacity="0.68"/><circle cx="166.7" cy="184.4" r="1.2" fill="#fff" opacity="0.25"/><circle cx="240.2" cy="106.3" r="0.3" fill="#fff" opacity="0.53"/><circle cx="92.5" cy="185.8" r="0.7" fill="#fff" opacity="0.29"/><circle cx="36.9" cy="204.3" r="1.4" fill="#fff" opacity="0.51"/><circle cx="103.2" cy="39.9" r="0.7" fill="#fff" opacity="0.71"/><circle cx="180.3" cy="8.6" r="0.8" fill="#fff" opacity="0.27"/><circle cx="149.4" cy="225.2" r="0.5" fill="#fff" opacity="0.55"/><circle cx="246.5" cy="169.1" r="0.8" fill="#fff" opacity="0.30"/><circle cx="229.3" cy="193.7" r="1.6" fill="#fff" opacity="0.38"/><circle cx="50.7" cy="84.6" r="1.4" fill="#fff" opacity="0.83"/><circle cx="179.0" cy="3.4" r="1.4" fill="#fff" opacity="0.60"/><circle cx="63.2" cy="38.9" r="0.5" fill="#fff" opacity="0.26"/><circle cx="277.7" cy="105.0" r="1.4" fill="#fff" opacity="0.78"/><circle cx="29.6" cy="3.8" r="1.6" fill="#fff" opacity="0.75"/><circle cx="58.7" cy="29.2" r="0.5" fill="#fff" opacity="0.47"/><circle cx="147.5" cy="69.5" r="0.6" fill="#fff" opacity="0.71"/><circle cx="256.5" cy="188.6" r="1.1" fill="#fff" opacity="0.46"/><circle cx="158.4" cy="23.0" r="1.0" fill="#fff" opacity="0.49"/><path d="M58.98543944116682 76.45940840058029 L60.17869866859168 79.52778927110135 L63.24707953911275 80.72104849852622 L60.17869866859168 81.91430772595108 L58.98543944116682 84.98268859647214 L57.79218021374196 81.91430772595108 L54.72379934322089 80.72104849852622 L57.79218021374196 79.52778927110135 Z" fill="#fff" opacity="0.71"/><path d="M125.616460503079 38.603981857188046 L127.81838552370668 44.2660747673735 L133.48047843389213 46.46799978800118 L127.81838552370668 48.669924808628856 L125.616460503079 54.33201771881431 L123.41453548245131 48.669924808628856 L117.75244257226586 46.46799978800118 L123.41453548245131 44.2660747673735 Z" fill="#fff" opacity="0.55"/><circle cx="197" cy="125" r="88" fill="hsla(259,85%,82%,0.13)"/><circle cx="197" cy="125" r="46" fill="hsla(259,90%,88%,1)"/><circle cx="182" cy="116" r="9.3" fill="hsla(259,55%,78%,1)" opacity="0.55"/><circle cx="210" cy="140" r="6.0" fill="hsla(259,55%,78%,1)" opacity="0.45"/><polygon points="0,400 0,232 48,143 97,228 145,129 193,213 242,128 290,196 290,400" fill="hsla(219,45%,20%,1)" opacity="0.9"/><g fill="hsla(214,50%,10%,1)">
<rect x="114.00131383372472" y="201.6" width="5.568" height="46.4"/>
<rect x="159.47331383372472" y="201.6" width="5.568" height="46.4"/>
<rect x="106.11331383372472" y="199.28" width="66.816" height="5.568" rx="1.8559999999999999"/>
<path d="M100.08131383372472 186.752 Q 139.52131383372472 179.328 178.96131383372472 186.752 L176.64131383372472 192.32 Q 139.52131383372472 185.824 102.40131383372471 192.32 Z"/>
</g><polygon points="0,400 0,280 48,213 97,249 145,236 193,238 242,203 290,257 290,400" fill="hsla(207,50%,14%,1)" opacity="0.95"/><polygon points="0,400 0,328 48,308 97,310 145,282 193,327 242,282 290,337 290,400" fill="hsla(219,55%,8%,1)" opacity="1"/><ellipse cx="237" cy="240" rx="3.1" ry="1.7" fill="hsla(325,90%,80%,0.44)" transform="rotate(303 237 240)"/><ellipse cx="76" cy="9" rx="2.3" ry="1.3" fill="hsla(325,90%,80%,0.53)" transform="rotate(169 76 9)"/><ellipse cx="136" cy="330" rx="3.0" ry="1.7" fill="hsla(325,90%,80%,0.31)" transform="rotate(161 136 330)"/><ellipse cx="114" cy="175" rx="5.6" ry="3.1" fill="hsla(325,90%,80%,0.50)" transform="rotate(291 114 175)"/><ellipse cx="6" cy="164" rx="3.1" ry="1.7" fill="hsla(325,90%,80%,0.72)" transform="rotate(255 6 164)"/><ellipse cx="50" cy="339" rx="4.1" ry="2.2" fill="hsla(325,90%,80%,0.45)" transform="rotate(301 50 339)"/><rect x="0" y="344" width="290" height="56" fill="rgba(12,6,24,0.6)"/><text x="50%" y="372" dominant-baseline="central" text-anchor="middle" font-family="Verdana,Geneva,sans-serif" font-size="13.6" fill="#f3e8ff" letter-spacing="0.5">Taimadou Gakuen 35 Shiken Shoutai</text><rect x="0.5" y="0.5" width="289" height="399" fill="none" stroke="rgba(255,255,255,0.25)"/></svg>