<svg xmlns="http://www.w3.org/2000/svg" width="290" height="400" viewBox="0 0 290 400"><defs><linearGradient id="sky" x1="0" y1="0" x2="0" y2="1">
<stop offset="0" stop-color="hsla(308,55%,13%,1)"/>
<stop offset="0.55" stop-color="hsla(330,60%,30%,1)"/>
<stop offset="1" stop-color="hsla(356,72%,56%,1)"/>
</linearGradient></defs><rect width="290" height="400" fill="url(#sky)"/><circle cx="3.0" cy="211.3" r="1.5" fill="#fff" opacity="0.61"/><circle cx="124.8" cy="40.2" r="1.1" fill="#fff" opacity="0.60"/><circle cx="46.4" cy="149.5" r="1.6" fill="#fff" opacity="0.42"/><circle cx="136.8" cy="55.4" r="0.7" fill="#fff" opacity="0.55"/><circle cx="212.3" cy="78.6" r="0.8" fill="#fff" opacity="0.85"/><circle cx="209.4" cy="111.6" r="1.5" fill="#fff" opacity="0.42"/><circle cx="155.9" cy="128.2" r="0.4" fill="#fff" opacity="0.44"/><circle cx="61.4" cy="162.0" r="1.4" fill="#fff" opacity="0.74"/><circle cx="129.1" cy="20.3" r="1.2" fill="#fff" opacity="0.67"/><circle cx="25.2" cy="55.5" r="0.4" fill="#fff" opacity="0.66"/><circle cx="75.3" cy="160.6" r="0.5" fill="#fff" opacity="0.37"/><circle cx="76.7" cy="170.9" r="1.4" fill="#fff" opacity="0.37"/><circle cx="191.6" cy="203.2" r="1.5" fill="#fff" opacity="0.46"/><circle cx="45.3" cy="20.6" r="1.6" fill="#fff" opacity="0.75"/><circle cx="59.5" cy="48.9" r="1.5" fill="#fff" opacity="0.60"/><circle cx="130.1" cy="31.1" r="1.1" fill="#fff" opacity="0.80"/><circle cx="113.4" cy="53.2" r="1.3" fill="#fff" opacity="0.68"/><circle cx="276.1" cy="54.1" r="1.3" fill="#fff" opacity="0.62"/><circle cx="227.8" cy="195.2" r="0.4" fill="#fff" opacity="0.81"/><circle cx="146.7" cy="62.5" r="0.7" fill="#fff" opacity="0.42"/><circle cx="61.6" cy="193.0" r="0.6" fill="#fff" opacity="0.26"/><circle cx="275.9" cy="55.5" r="0.9" fill="#fff" opacity="0.30"/><circle cx="1.9" cy="67.2" r="1.1" fill="#fff" opacity="0.76"/><circle cx="47.3" cy="166.1" r="1.3" fill="#fff" opacity="0.81"/><circle cx="94.7" cy="163.5" r="0.4" fill="#fff" opacity="0.41"/><circle cx="42.6" cy="225.4" r="0.5" fill="#fff" opacity="0.70"/><circle cx="154.4" cy="135.3" r="1.4" fill="#fff" opacity="0.43"/><circle cx="56.8" cy="24.9" r="1.2" fill="#fff" opacity="0.31"/><circle cx="181.0" cy="113.0" r="0.6" fill="#fff" opacity="0.57"/><circle cx="32.3" cy="27.8" r="1.5" fill="#fff" opacity="0.82"/><circle cx="216.2" cy="90.2" r="1.2" fill="#fff" opacity="0.27"/><circle cx="141.7" cy="50.0" r="1.1" fill="#fff" opacity="0.84"/><circle cx="216.4" cy="7.2" r="1.3" fill="#fff" opacity="0.44"/><circle cx="17.0" cy="127.0" r="0.7" fill="#fff" opacity="0.29"/><circle cx="235.2" cy="36.7" r="0.4" fill="#fff" opacity="0.76"/><circle cx="29.0" cy="93.6" r="0.6" fill="#fff" opacity="0.27"/><circle cx="42.9" cy="78.4" r="0.7" fill="#fff" opacity="0.72"/><circle cx="262.9" cy="109.4" r="1.4" fill="#fff" opacity="0.80"/><circle cx="214.5" cy="199.0" r="1.4" fill="#fff" opacity="0.80"/><circle cx="93.7" cy="146.5" r="1.5" fill="#fff" opacity="0.42"/><circle cx="46.3" cy="34.8" r="0.5" fill="#fff" opacity="0.34"/><circle cx="98.5" cy="173.0" r="0.9" fill="#fff" opacity="0.28"/><circle cx="129.9" cy="130.1" r="0.4" fill="#fff" opacity="0.29"/><circle cx="217.4" cy="44.0" r="1.1" fill="#fff" opacity="0.61"/><circle cx="14.8" cy="6.6" r="1.0" fill="#fff" opacity="0.82"/><circle cx="252.8" cy="88.6" r="0.9" fill="#fff" opacity="0.28"/><circle cx="238.8" cy="153.4" r="1.4" fill="#fff" opacity="0.31"/><circle cx="96.1" cy="163.2" r="1.4" fill="#fff" opacity="0.30"/><path d="M26.75046937307343 -4.264604605967179 L28.6190549446363 0.5403297209087758 L33.423989271512255 2.4089152924716473 L28.6190549446363 4.2775008640345185 L26.75046937307343 9.082435190910473 L24.881883801510558 4.2775008640345185 L20.076949474634603 2.4089152924716473 L24.881883801510558 0.5403297209087758 Z" fill="#fff" opacity="0.65"/><path d="M263.27812558738515 111.12598600494675 L265.0779220774863 115.7540341223497 L269.70597019488923 117.55383061245084 L265.0779220774863 119.35362710255198 L263.27812558738515 123.98167521995492 L261.478329097284 119.35362710255198 L256.85028097988106 117.55383061245084 L261.478329097284 115.7540341223497 Z" fill="#fff" opacity="0.84"/><circle cx="224" cy="90" r="88" fill="hsla(348,85%,82%,0.13)"/><circle cx="224" cy="90" r="46" fill="hsla(348,90%,88%,1)"/><circle cx="209" cy="82" r="9.3" fill="hsla(348,55%,78%,1)" opacity="0.55"/><circle cx="237" cy="105" r="6.0" fill="hsla(348,55%,78%,1)" opacity="0.45"/><polygon points="0,400 0,232 48,159 97,243 145,173 193,212 242,138 290,229 290,400" fill="hsla(308,45%,20%,1)" opacity="0.9"/><g fill="hsla(303,50%,10%,1)">
<rect x="98.76314520413987" y="201.6" width="5.568" height="46.4"/>
<rect x="144.23514520413988" y="201.6" width="5.568" height="46.4"/>
<rect x="90.87514520413987" y="199.28" width="66.816" height="5.568" rx="1.8559999999999999"/>
<path d="M84.84314520413987 186.752 Q 124.28314520413987 179.328 163.72314520413988 186.752 L161.40314520413986 192.32 Q 124.28314520413987 185.824 87.16314520413988 192.32 Z"/>
</g><polygon points="0,400 0,280 48,231 97,251 145,224 193,248 242,231 290,289 290,400" fill="hsla(296,50%,14%,1)" opacity="0.95"/><polygon points="0,400 0,328 48,315 97,326 145,294 193,308 242,276 290,302 290,400" fill="hsla(308,55%,8%,1)" opacity="1"/><ellipse cx="52" cy="335" rx="5.0" ry="2.8" fill="hsla(325,90%,80%,0.69)" transform="rotate(31 52 335)"/><ellipse cx="264" cy="378" rx="5.8" ry="3.2" fill="hsla(325,90%,80%,0.68)" transform="rotate(273 264 378)"/><ellipse cx="36" cy="272" rx="5.3" ry="2.9" fill="hsla(325,90%,80%,0.41)" transform="rotate(167 36 272)"/><ellipse cx="70" cy="198" rx="4.1" ry="2.2" fill="hsla(325,90%,80%,0.37)" transform="rotate(324 70 198)"/><ellipse cx="199" cy="138" rx="4.0" ry="2.2" fill="hsla(325,90%,80%,0.66)" transform="rotate(281 199 138)"/><ellipse cx="278" cy="8" rx="2.7" ry="1.5" fill="hsla(325,90%,80%,0.64)" transform="rotate(8 278 8)"/><rect x="0" y="344" width="290" height="56" fill="rgba(12,6,24,0.6)"/><text x="50%" y="372" dominant-baseline="central" text-anchor="middle" font-family="Verdana,Geneva,sans-serif" font-size="29.1" fill="#f3e8ff" letter-spacing="0.5">Flying Witch</text><rect x="0.5" y="0.5" width="289" height="399" fill="none" stroke="rgba(255,255,255,0.25)"/></svg>