<svg xmlns="http://www.w3.org/2000/svg" width="500" height="280" viewBox="0 0 500 280"><defs><linearGradient id="sky" x1="0" y1="0" x2="0" y2="1">
<stop offset="0" stop-color="hsla(210,55%,13%,1)"/>
<stop offset="0.55" stop-color="hsla(232,60%,30%,1)"/>
<stop offset="1" stop-color="hsla(258,72%,56%,1)"/>
</linearGradient></defs><rect width="500" height="280" fill="url(#sky)"/><circle cx="288.6" cy="166.5" r="1.3" fill="#fff" opacity="0.81"/><circle cx="254.8" cy="37.5" r="0.5" fill="#fff" opacity="0.34"/><circle cx="21.9" cy="35.4" r="1.6" fill="#fff" opacity="0.50"/><circle cx="300.7" cy="41.2" r="1.2" fill="#fff" opacity="0.83"/><circle cx="319.0" cy="3.7" r="0.7" fill="#fff" opacity="0.26"/><circle cx="485.9" cy="92.9" r="0.9" fill="#fff" opacity="0.27"/><circle cx="382.1" cy="149.8" r="1.1" fill="#fff" opacity="0.53"/><circle cx="206.8" cy="71.6" r="1.2" fill="#fff" opacity="0.30"/><circle cx="440.7" cy="41.9" r="0.6" fill="#fff" opacity="0.35"/><circle cx="106.6" cy="74.8" r="0.5" fill="#fff" opacity="0.46"/><circle cx="135.9" cy="123.4" r="0.6" fill="#fff" opacity="0.56"/><circle cx="474.7" cy="139.0" r="1.6" fill="#fff" opacity="0.56"/><circle cx="185.3" cy="27.0" r="1.2" fill="#fff" opacity="0.31"/><circle cx="427.8" cy="13.3" r="1.2" fill="#fff" opacity="0.63"/><circle cx="329.0" cy="68.5" r="0.5" fill="#fff" opacity="0.64"/><circle cx="371.0" cy="28.8" r="0.7" fill="#fff" opacity="0.70"/><circle cx="57.7" cy="17.2" r="1.4" fill="#fff" opacity="0.81"/><circle cx="241.7" cy="113.4" r="1.4" fill="#fff" opacity="0.43"/><circle cx="120.7" cy="3.2" r="0.6" fill="#fff" opacity="0.44"/><circle cx="33.7" cy="75.0" r="0.5" fill="#fff" opacity="0.55"/><circle cx="317.0" cy="90.9" r="1.2" fill="#fff" opacity="0.36"/><circle cx="102.6" cy="114.0" r="0.8" fill="#fff" opacity="0.46"/><circle cx="65.5" cy="79.5" r="1.5" fill="#fff" opacity="0.37"/><circle cx="253.5" cy="173.0" r="0.9" fill="#fff" opacity="0.59"/><circle cx="258.2" cy="53.2" r="0.9" fill="#fff" opacity="0.50"/><circle cx="108.2" cy="37.1" r="0.9" fill="#fff" opacity="0.42"/><circle cx="393.8" cy="116.4" r="0.4" fill="#fff" opacity="0.27"/><circle cx="255.4" cy="7.6" r="0.3" fill="#fff" opacity="0.59"/><circle cx="492.9" cy="11.1" r="0.9" fill="#fff" opacity="0.36"/><circle cx="180.8" cy="68.4" r="0.4" fill="#fff" opacity="0.73"/><circle cx="294.0" cy="1.8" r="0.6" fill="#fff" opacity="0.46"/><circle cx="479.6" cy="148.5" r="0.8" fill="#fff" opacity="0.73"/><circle cx="231.2" cy="80.7" r="0.3" fill="#fff" opacity="0.70"/><circle cx="349.0" cy="90.6" r="0.5" fill="#fff" opacity="0.70"/><circle cx="193.0" cy="93.5" r="1.4" fill="#fff" opacity="0.48"/><circle cx="363.1" cy="21.9" r="1.5" fill="#fff" opacity="0.27"/><circle cx="62.3" cy="94.1" r="1.4" fill="#fff" opacity="0.83"/><circle cx="28.3" cy="84.7" r="0.7" fill="#fff" opacity="0.73"/><circle cx="37.8" cy="58.6" r="1.4" fill="#fff" opacity="0.71"/><circle cx="120.4" cy="47.3" r="1.5" fill="#fff" opacity="0.46"/><circle cx="236.2" cy="1.0" r="1.6" fill="#fff" opacity="0.28"/><circle cx="302.7" cy="11.1" r="0.6" fill="#fff" opacity="0.47"/><circle cx="76.5" cy="142.8" r="0.6" fill="#fff" opacity="0.54"/><circle cx="25.3" cy="129.9" r="1.2" fill="#fff" opacity="0.81"/><circle cx="444.7" cy="96.1" r="1.1" fill="#fff" opacity="0.47"/><circle cx="206.0" cy="37.0" r="1.0" fill="#fff" opacity="0.47"/><circle cx="140.0" cy="9.3" r="1.2" fill="#fff" opacity="0.59"/><circle cx="191.9" cy="61.8" r="0.9" fill="#fff" opacity="0.77"/><circle cx="102.8" cy="32.4" r="1.1" fill="#fff" opacity="0.45"/><circle cx="2.9" cy="70.3" r="0.3" fill="#fff" opacity="0.26"/><circle cx="422.8" cy="8.7" r="1.6" fill="#fff" opacity="0.83"/><circle cx="355.9" cy="96.8" r="1.1" fill="#fff" opacity="0.85"/><circle cx="129.8" cy="90.2" r="0.4" fill="#fff" opacity="0.34"/><circle cx="470.4" cy="160.6" r="0.9" fill="#fff" opacity="0.68"/><circle cx="264.4" cy="17.4" r="1.4" fill="#fff" opacity="0.44"/><circle cx="155.7" cy="137.4" r="1.3" fill="#fff" opacity="0.66"/><circle cx="230.8" cy="16.4" r="1.6" fill="#fff" opacity="0.63"/><circle cx="178.8" cy="32.8" r="1.3" fill="#fff" opacity="0.71"/><path d="M430.64743431750685 6.965958922402933 L431.72644644492306 9.740561535758898 L434.501049058279 10.819573663175106 L431.72644644492306 11.898585790591314 L430.64743431750685 14.673188403947279 L429.56842219009064 11.898585790591314 L426.7938195767347 10.819573663175106 L429.56842219009064 9.740561535758898 Z" fill="#fff" opacity="0.84"/><path d="M413.9101376058534 102.72401185170747 L415.71027205755 107.35292901321314 L420.3391892190557 109.15306346490979 L415.71027205755 110.95319791660644 L413.9101376058534 115.58211507811211 L412.11000315415674 110.95319791660644 L407.48108599265106 109.15306346490979 L412.11000315415674 107.35292901321314 Z" fill="#fff" opacity="0.77"/><path d="M177.78358852956444 91.03885213774629 L179.39803284929133 95.1902803884726 L183.54946110001765 96.8047247081995 L179.39803284929133 98.4191690279264 L177.78358852956444 102.57059727865271 L176.16914420983755 98.4191690279264 L172.01771595911123 96.8047247081995 L176.16914420983755 95.1902803884726 Z" fill="#fff" opacity="0.52"/><path d="M273.1883927481249 2.5765104258898646 L274.6208576558251 6.259991617118939 L278.30433884705417 7.692456524819136 L274.6208576558251 9.124921432519331 L273.1883927481249 12.808402623748407 L271.7559278404247 9.124921432519331 L268.0724466491956 7.692456524819136 L271.7559278404247 6.259991617118939 Z" fill="#fff" opacity="0.61"/><circle cx="387" cy="82" r="85" fill="hsla(250,85%,82%,0.13)"/><circle cx="387" cy="82" r="45" fill="hsla(250,90%,88%,1)"/><circle cx="373" cy="74" r="9.0" fill="hsla(250,55%,78%,1)" opacity="0.55"/><circle cx="399" cy="96" r="5.8" fill="hsla(250,55%,78%,1)" opacity="0.45"/><polygon points="0,280 0,162 83,97 167,175 250,99 333,132 417,126 500,133 500,280" fill="hsla(210,45%,20%,1)" opacity="0.9"/><g fill="hsla(205,50%,10%,1)">
<rect x="80.71414121346548" y="128.79999999999998" width="5.376" height="44.800000000000004"/>
<rect x="124.61814121346549" y="128.79999999999998" width="5.376" height="44.800000000000004"/>
<rect x="73.09814121346548" y="126.55999999999999" width="64.512" height="5.376" rx="1.7920000000000003"/>
<path d="M67.27414121346547 114.46399999999998 Q 105.35414121346548 107.29599999999999 143.4341412134655 114.46399999999998 L141.19414121346549 119.83999999999999 Q 105.35414121346548 113.56799999999998 69.51414121346548 119.83999999999999 Z"/>
</g><polygon points="0,280 0,196 83,154 167,168 250,143 333,187 417,176 500,170 500,280" fill="hsla(198,50%,14%,1)" opacity="0.95"/><polygon points="0,280 0,230 83,196 167,231 250,219 333,234 417,203 500,227 500,280" fill="hsla(210,55%,8%,1)" opacity="1"/><ellipse cx="109" cy="55" rx="2.3" ry="1.3" fill="hsla(325,90%,80%,0.37)" transform="rotate(158 109 55)"/><ellipse cx="451" cy="204" rx="4.1" ry="2.3" fill="hsla(325,90%,80%,0.36)" transform="rotate(41 451 204)"/><ellipse cx="337" cy="188" rx="4.4" ry="2.4" fill="hsla(325,90%,80%,0.43)" transform="rotate(142 337 188)"/><ellipse cx="332" cy="100" rx="2.0" ry="1.1" fill="hsla(325,90%,80%,0.50)" transform="rotate(21 332 100)"/><ellipse cx="289" cy="19" rx="2.0" ry="1.1" fill="hsla(325,90%,80%,0.32)" transform="rotate(252 289 19)"/><ellipse cx="293" cy="244" rx="4.6" ry="2.5" fill="hsla(325,90%,80%,0.50)" transform="rotate(215 293 244)"/><ellipse cx="182" cy="98" rx="3.0" ry="1.7" fill="hsla(325,90%,80%,0.33)" transform="rotate(23 182 98)"/><ellipse cx="454" cy="223" rx="5.6" ry="3.1" fill="hsla(325,90%,80%,0.55)" transform="rotate(303 454 223)"/><ellipse cx="345" cy="40" rx="5.0" ry="2.7" fill="hsla(325,90%,80%,0.56)" transform="rotate(152 345 40)"/><ellipse cx="220" cy="256" rx="3.6" ry="2.0" fill="hsla(325,90%,80%,0.37)" transform="rotate(269 220 256)"/><text x="50%" y="146" text-anchor="middle" font-family="Georgia,'Times New Roman',serif" font-weight="bold" font-size="95" fill="#fff" paint-order="stroke" stroke="hsla(210,60%,18%,0.85)" stroke-width="7.6">EP 11</text><rect x="0" y="241" width="500" height="39" fill="rgba(12,6,24,0.6)"/><text x="50%" y="260" dominant-baseline="central" text-anchor="middle" font-family="Verdana,Geneva,sans-serif" font-size="20.4" fill="#f3e8ff" letter-spacing="0.5">Nem vagyok hajlandó veszíteni!</text><rect x="0.5" y="0.5" width="499" height="279" fill="none" stroke="rgba(255,255,255,0.25)"/></svg>