<svg xmlns="http://www.w3.org/2000/svg" width="500" height="280" viewBox="0 0 500 280"><defs><linearGradient id="sky" x1="0" y1="0" x2="0" y2="1">
<stop offset="0" stop-color="hsla(333,55%,13%,1)"/>
<stop offset="0.55" stop-color="hsla(355,60%,30%,1)"/>
<stop offset="1" stop-color="hsla(21,72%,56%,1)"/>
</linearGradient></defs><rect width="500" height="280" fill="url(#sky)"/><circle cx="65.5" cy="41.9" r="0.7" fill="#fff" opacity="0.64"/><circle cx="467.6" cy="6.2" r="0.5" fill="#fff" opacity="0.71"/><circle cx="41.1" cy="171.0" r="0.4" fill="#fff" opacity="0.40"/><circle cx="204.0" cy="70.0" r="0.4" fill="#fff" opacity="0.46"/><circle cx="489.3" cy="102.6" r="0.6" fill="#fff" opacity="0.66"/><circle cx="356.6" cy="26.7" r="0.6" fill="#fff" opacity="0.56"/><circle cx="185.2" cy="96.0" r="0.4" fill="#fff" opacity="0.77"/><circle cx="52.0" cy="92.3" r="1.1" fill="#fff" opacity="0.66"/><circle cx="18.3" cy="53.7" r="1.5" fill="#fff" opacity="0.59"/><circle cx="279.7" cy="118.8" r="0.5" fill="#fff" opacity="0.69"/><circle cx="153.6" cy="74.7" r="0.8" fill="#fff" opacity="0.52"/><circle cx="6.6" cy="110.4" r="0.6" fill="#fff" opacity="0.84"/><circle cx="349.0" cy="151.3" r="0.9" fill="#fff" opacity="0.64"/><circle cx="446.9" cy="55.8" r="0.6" fill="#fff" opacity="0.78"/><circle cx="429.0" cy="49.9" r="0.5" fill="#fff" opacity="0.82"/><circle cx="489.7" cy="117.9" r="1.0" fill="#fff" opacity="0.34"/><circle cx="414.6" cy="71.0" r="1.3" fill="#fff" opacity="0.49"/><circle cx="281.2" cy="140.7" r="1.3" fill="#fff" opacity="0.55"/><circle cx="309.3" cy="83.9" r="0.4" fill="#fff" opacity="0.66"/><circle cx="464.7" cy="34.9" r="1.3" fill="#fff" opacity="0.84"/><circle cx="41.5" cy="134.4" r="1.2" fill="#fff" opacity="0.77"/><circle cx="75.4" cy="0.8" r="0.3" fill="#fff" opacity="0.73"/><circle cx="63.4" cy="22.3" r="0.6" fill="#fff" opacity="0.77"/><circle cx="92.8" cy="66.9" r="0.7" fill="#fff" opacity="0.69"/><circle cx="105.4" cy="104.3" r="1.2" fill="#fff" opacity="0.44"/><circle cx="148.1" cy="161.5" r="1.5" fill="#fff" opacity="0.34"/><circle cx="87.6" cy="25.4" r="1.0" fill="#fff" opacity="0.36"/><circle cx="389.1" cy="20.5" r="0.3" fill="#fff" opacity="0.60"/><circle cx="187.3" cy="63.9" r="1.5" fill="#fff" opacity="0.71"/><circle cx="0.2" cy="147.7" r="0.5" fill="#fff" opacity="0.70"/><circle cx="62.2" cy="58.4" r="1.5" fill="#fff" opacity="0.48"/><circle cx="379.2" cy="9.1" r="0.8" fill="#fff" opacity="0.44"/><circle cx="230.5" cy="80.2" r="0.9" fill="#fff" opacity="0.59"/><circle cx="470.7" cy="56.5" r="1.0" fill="#fff" opacity="0.30"/><circle cx="107.1" cy="75.8" r="1.6" fill="#fff" opacity="0.74"/><circle cx="254.9" cy="116.5" r="1.5" fill="#fff" opacity="0.74"/><circle cx="195.9" cy="41.2" r="1.5" fill="#fff" opacity="0.81"/><circle cx="393.4" cy="47.7" r="0.6" fill="#fff" opacity="0.60"/><circle cx="438.5" cy="32.4" r="1.5" fill="#fff" opacity="0.83"/><circle cx="30.9" cy="60.5" r="1.0" fill="#fff" opacity="0.66"/><circle cx="219.0" cy="14.4" r="0.9" fill="#fff" opacity="0.59"/><circle cx="253.0" cy="7.3" r="0.7" fill="#fff" opacity="0.33"/><circle cx="25.2" cy="67.4" r="0.5" fill="#fff" opacity="0.30"/><circle cx="200.9" cy="71.6" r="1.4" fill="#fff" opacity="0.68"/><circle cx="265.8" cy="83.6" r="0.5" fill="#fff" opacity="0.32"/><circle cx="341.3" cy="79.2" r="1.3" fill="#fff" opacity="0.61"/><circle cx="244.4" cy="168.5" r="0.7" fill="#fff" opacity="0.65"/><circle cx="393.8" cy="36.0" r="0.6" fill="#fff" opacity="0.56"/><circle cx="289.1" cy="12.6" r="1.2" fill="#fff" opacity="0.76"/><circle cx="413.5" cy="155.2" r="0.4" fill="#fff" opacity="0.54"/><circle cx="38.5" cy="8.7" r="1.4" fill="#fff" opacity="0.32"/><circle cx="30.2" cy="27.4" r="1.1" fill="#fff" opacity="0.31"/><circle cx="384.6" cy="124.2" r="1.5" fill="#fff" opacity="0.34"/><circle cx="344.3" cy="59.2" r="0.6" fill="#fff" opacity="0.51"/><circle cx="71.0" cy="172.7" r="0.5" fill="#fff" opacity="0.38"/><circle cx="478.1" cy="143.9" r="0.5" fill="#fff" opacity="0.48"/><circle cx="447.7" cy="96.0" r="1.6" fill="#fff" opacity="0.32"/><circle cx="284.4" cy="79.5" r="0.9" fill="#fff" opacity="0.71"/><path d="M382.7413977123797 64.68330299993977 L383.68606979461384 67.11245978282764 L386.11522657750174 68.05713186506182 L383.68606979461384 69.001803947296 L382.7413977123797 71.43096073018387 L381.79672563014554 69.001803947296 L379.36756884725764 68.05713186506182 L381.79672563014554 67.11245978282764 Z" fill="#fff" opacity="0.79"/><path d="M209.8916368559003 133.65199850918725 L211.26700709505008 137.18866483842953 L214.80367342429236 138.56403507757932 L211.26700709505008 139.9394053167291 L209.8916368559003 143.4760716459714 L208.5162666167505 139.9394053167291 L204.97960028750822 138.56403507757932 L208.5162666167505 137.18866483842953 Z" fill="#fff" opacity="0.81"/><path d="M329.05448554083705 6.958536408375949 L329.8954770463146 9.12108599388972 L332.0580266318284 9.962077499367297 L329.8954770463146 10.803069004844874 L329.05448554083705 12.965618590358645 L328.2134940353595 10.803069004844874 L326.0509444498457 9.962077499367297 L328.2134940353595 9.12108599388972 Z" fill="#fff" opacity="0.53"/><path d="M316.57121516764164 86.1527221002616 L317.5333879411779 88.6268806607835 L320.00754650169984 89.5890534343198 L317.5333879411779 90.55122620785609 L316.57121516764164 93.02538476837799 L315.60904239410536 90.55122620785609 L313.13488383358344 89.5890534343198 L315.60904239410536 88.6268806607835 Z" fill="#fff" opacity="0.55"/><circle cx="311" cy="75" r="85" fill="hsla(13,85%,82%,0.13)"/><circle cx="311" cy="75" r="45" fill="hsla(13,90%,88%,1)"/><circle cx="296" cy="67" r="9.0" fill="hsla(13,55%,78%,1)" opacity="0.55"/><circle cx="323" cy="89" r="5.8" fill="hsla(13,55%,78%,1)" opacity="0.45"/><polygon points="0,280 0,162 83,95 167,125 250,94 333,141 417,113 500,138 500,280" fill="hsla(333,45%,20%,1)" opacity="0.9"/><g fill="hsla(328,50%,10%,1)">
<rect x="280.96188758187" y="128.79999999999998" width="5.376" height="44.800000000000004"/>
<rect x="324.86588758186997" y="128.79999999999998" width="5.376" height="44.800000000000004"/>
<rect x="273.34588758187" y="126.55999999999999" width="64.512" height="5.376" rx="1.7920000000000003"/>
<path d="M267.52188758187 114.46399999999998 Q 305.60188758186996 107.29599999999999 343.68188758186994 114.46399999999998 L341.44188758187 119.83999999999999 Q 305.60188758186996 113.56799999999998 269.7618875818699 119.83999999999999 Z"/>
</g><polygon points="0,280 0,196 83,175 167,171 250,173 333,199 417,179 500,200 500,280" fill="hsla(321,50%,14%,1)" opacity="0.95"/><polygon points="0,280 0,230 83,195 167,219 250,199 333,236 417,211 500,217 500,280" fill="hsla(333,55%,8%,1)" opacity="1"/><ellipse cx="128" cy="264" rx="3.4" ry="1.9" fill="hsla(325,90%,80%,0.39)" transform="rotate(119 128 264)"/><ellipse cx="16" cy="13" rx="2.7" ry="1.5" fill="hsla(325,90%,80%,0.61)" transform="rotate(299 16 13)"/><ellipse cx="52" cy="194" rx="2.3" ry="1.3" fill="hsla(325,90%,80%,0.72)" transform="rotate(44 52 194)"/><ellipse cx="171" cy="135" rx="2.7" ry="1.5" fill="hsla(325,90%,80%,0.30)" transform="rotate(323 171 135)"/><ellipse cx="29" cy="131" rx="2.3" ry="1.3" fill="hsla(325,90%,80%,0.69)" transform="rotate(41 29 131)"/><ellipse cx="428" cy="115" rx="3.6" ry="2.0" fill="hsla(325,90%,80%,0.44)" transform="rotate(7 428 115)"/><ellipse cx="15" cy="173" rx="4.3" ry="2.4" fill="hsla(325,90%,80%,0.47)" transform="rotate(157 15 173)"/><ellipse cx="247" cy="69" rx="3.2" ry="1.8" fill="hsla(325,90%,80%,0.66)" transform="rotate(120 247 69)"/><ellipse cx="76" cy="104" rx="2.8" ry="1.6" fill="hsla(325,90%,80%,0.66)" transform="rotate(124 76 104)"/><ellipse cx="299" cy="206" rx="3.0" ry="1.6" fill="hsla(325,90%,80%,0.33)" transform="rotate(87 299 206)"/><text x="50%" y="146" text-anchor="middle" font-family="Georgia,'Times New Roman',serif" font-weight="bold" font-size="95" fill="#fff" paint-order="stroke" stroke="hsla(333,60%,18%,0.85)" stroke-width="7.6">EP 3</text><rect x="0" y="241" width="500" height="39" fill="rgba(12,6,24,0.6)"/><text x="50%" y="260" dominant-baseline="central" text-anchor="middle" font-family="Verdana,Geneva,sans-serif" font-size="14.9" fill="#f3e8ff" letter-spacing="0.5">Már amúgy is éppen kezdtem egy kicsit fellelkesedni!</text><rect x="0.5" y="0.5" width="499" height="279" fill="none" stroke="rgba(255,255,255,0.25)"/></svg>