<svg xmlns="http://www.w3.org/2000/svg" width="480" height="480" viewBox="0 0 480 480">
<defs><radialGradient id="b" cx="0.5" cy="0.4" r="0.9"><stop offset="0" stop-color="#231038"/><stop offset="1" stop-color="#120821"/></radialGradient></defs>
<rect width="480" height="480" fill="url(#b)"/><circle cx="268.1" cy="444.6" r="0.7" fill="#cbb3ee" opacity="0.24"/><circle cx="449.1" cy="400.4" r="1.0" fill="#cbb3ee" opacity="0.41"/><circle cx="257.5" cy="182.9" r="0.4" fill="#cbb3ee" opacity="0.42"/><circle cx="64.8" cy="150.5" r="1.3" fill="#cbb3ee" opacity="0.37"/><circle cx="386.7" cy="136.0" r="1.2" fill="#cbb3ee" opacity="0.14"/><circle cx="316.9" cy="50.3" r="0.6" fill="#cbb3ee" opacity="0.42"/><circle cx="154.1" cy="43.1" r="1.0" fill="#cbb3ee" opacity="0.43"/><circle cx="296.4" cy="198.8" r="1.3" fill="#cbb3ee" opacity="0.41"/><circle cx="89.0" cy="321.1" r="0.5" fill="#cbb3ee" opacity="0.32"/><circle cx="427.7" cy="13.5" r="0.8" fill="#cbb3ee" opacity="0.43"/><circle cx="235.9" cy="301.6" r="1.1" fill="#cbb3ee" opacity="0.37"/><circle cx="46.7" cy="333.1" r="1.1" fill="#cbb3ee" opacity="0.38"/><circle cx="277.3" cy="290.5" r="1.2" fill="#cbb3ee" opacity="0.16"/><circle cx="298.6" cy="144.8" r="0.6" fill="#cbb3ee" opacity="0.14"/><circle cx="375.8" cy="92.2" r="0.5" fill="#cbb3ee" opacity="0.26"/><circle cx="394.1" cy="355.0" r="1.2" fill="#cbb3ee" opacity="0.37"/><circle cx="434.7" cy="437.0" r="1.4" fill="#cbb3ee" opacity="0.36"/><circle cx="104.5" cy="344.0" r="1.3" fill="#cbb3ee" opacity="0.17"/><circle cx="76.9" cy="412.4" r="1.1" fill="#cbb3ee" opacity="0.37"/><circle cx="214.9" cy="183.8" r="0.9" fill="#cbb3ee" opacity="0.14"/><circle cx="263.8" cy="98.8" r="0.7" fill="#cbb3ee" opacity="0.14"/><circle cx="17.3" cy="240.3" r="0.5" fill="#cbb3ee" opacity="0.27"/><circle cx="111.4" cy="127.4" r="1.1" fill="#cbb3ee" opacity="0.12"/><circle cx="121.3" cy="459.3" r="0.5" fill="#cbb3ee" opacity="0.11"/><circle cx="406.1" cy="463.6" r="0.8" fill="#cbb3ee" opacity="0.24"/><circle cx="464.5" cy="255.6" r="1.3" fill="#cbb3ee" opacity="0.30"/><circle cx="19.2" cy="253.3" r="0.9" fill="#cbb3ee" opacity="0.45"/><circle cx="420.8" cy="386.5" r="1.1" fill="#cbb3ee" opacity="0.23"/><circle cx="399.8" cy="112.6" r="1.2" fill="#cbb3ee" opacity="0.13"/><circle cx="88.0" cy="368.6" r="1.2" fill="#cbb3ee" opacity="0.13"/><circle cx="206.8" cy="421.9" r="0.3" fill="#cbb3ee" opacity="0.28"/><circle cx="454.3" cy="178.7" r="0.8" fill="#cbb3ee" opacity="0.31"/><circle cx="319.3" cy="223.5" r="0.9" fill="#cbb3ee" opacity="0.35"/><circle cx="142.8" cy="258.1" r="1.2" fill="#cbb3ee" opacity="0.33"/><circle cx="366.0" cy="403.2" r="0.8" fill="#cbb3ee" opacity="0.28"/><circle cx="235.4" cy="281.3" r="0.8" fill="#cbb3ee" opacity="0.25"/><circle cx="113.4" cy="114.9" r="0.3" fill="#cbb3ee" opacity="0.36"/><circle cx="155.5" cy="367.3" r="1.0" fill="#cbb3ee" opacity="0.32"/><circle cx="192.6" cy="250.1" r="0.8" fill="#cbb3ee" opacity="0.33"/><circle cx="248.9" cy="136.0" r="0.5" fill="#cbb3ee" opacity="0.36"/><circle cx="324.6" cy="149.9" r="0.8" fill="#cbb3ee" opacity="0.20"/><circle cx="23.7" cy="207.1" r="0.8" fill="#cbb3ee" opacity="0.40"/><circle cx="105.2" cy="441.8" r="0.8" fill="#cbb3ee" opacity="0.21"/><circle cx="329.5" cy="164.0" r="0.5" fill="#cbb3ee" opacity="0.23"/><circle cx="47.5" cy="39.5" r="0.4" fill="#cbb3ee" opacity="0.12"/><circle cx="274.2" cy="340.1" r="0.8" fill="#cbb3ee" opacity="0.29"/><circle cx="124.1" cy="187.3" r="0.6" fill="#cbb3ee" opacity="0.17"/><circle cx="380.7" cy="70.1" r="0.3" fill="#cbb3ee" opacity="0.41"/><circle cx="407.5" cy="367.0" r="0.9" fill="#cbb3ee" opacity="0.14"/><circle cx="21.7" cy="224.2" r="0.5" fill="#cbb3ee" opacity="0.15"/><circle cx="129.6" cy="329.8" r="0.8" fill="#cbb3ee" opacity="0.22"/><circle cx="173.5" cy="366.3" r="1.4" fill="#cbb3ee" opacity="0.26"/><circle cx="219.7" cy="431.2" r="0.7" fill="#cbb3ee" opacity="0.31"/><circle cx="448.1" cy="196.4" r="0.9" fill="#cbb3ee" opacity="0.10"/><circle cx="121.3" cy="269.8" r="0.7" fill="#cbb3ee" opacity="0.38"/><circle cx="65.0" cy="215.8" r="0.8" fill="#cbb3ee" opacity="0.33"/><circle cx="387.7" cy="230.2" r="0.9" fill="#cbb3ee" opacity="0.34"/><circle cx="460.7" cy="236.8" r="1.3" fill="#cbb3ee" opacity="0.21"/><circle cx="16.4" cy="409.1" r="0.4" fill="#cbb3ee" opacity="0.28"/><circle cx="337.5" cy="336.1" r="0.7" fill="#cbb3ee" opacity="0.17"/><circle cx="22.2" cy="145.5" r="0.7" fill="#cbb3ee" opacity="0.21"/><circle cx="171.1" cy="111.8" r="1.3" fill="#cbb3ee" opacity="0.39"/><circle cx="368.9" cy="454.6" r="0.9" fill="#cbb3ee" opacity="0.14"/><circle cx="76.8" cy="383.7" r="0.4" fill="#cbb3ee" opacity="0.40"/><circle cx="379.9" cy="165.4" r="0.9" fill="#cbb3ee" opacity="0.44"/><circle cx="234.2" cy="438.4" r="0.3" fill="#cbb3ee" opacity="0.37"/><circle cx="327.8" cy="22.1" r="1.0" fill="#cbb3ee" opacity="0.35"/><circle cx="191.3" cy="17.0" r="1.0" fill="#cbb3ee" opacity="0.19"/><circle cx="62.1" cy="29.1" r="0.3" fill="#cbb3ee" opacity="0.31"/><circle cx="266.6" cy="67.6" r="0.3" fill="#cbb3ee" opacity="0.30"/><circle cx="196.3" cy="159.9" r="0.6" fill="#cbb3ee" opacity="0.35"/><circle cx="450.6" cy="420.6" r="0.9" fill="#cbb3ee" opacity="0.30"/><circle cx="333.4" cy="289.9" r="1.0" fill="#cbb3ee" opacity="0.21"/><circle cx="25.6" cy="368.4" r="0.8" fill="#cbb3ee" opacity="0.34"/><circle cx="310.4" cy="272.5" r="0.6" fill="#cbb3ee" opacity="0.35"/><circle cx="204.4" cy="308.7" r="0.5" fill="#cbb3ee" opacity="0.28"/><circle cx="320.9" cy="159.5" r="0.8" fill="#cbb3ee" opacity="0.21"/><circle cx="127.8" cy="311.3" r="1.1" fill="#cbb3ee" opacity="0.26"/><circle cx="377.5" cy="104.7" r="1.1" fill="#cbb3ee" opacity="0.16"/><circle cx="20.9" cy="209.0" r="0.8" fill="#cbb3ee" opacity="0.10"/><circle cx="32.2" cy="411.6" r="0.8" fill="#cbb3ee" opacity="0.30"/><circle cx="467.9" cy="292.1" r="1.1" fill="#cbb3ee" opacity="0.41"/><circle cx="195.6" cy="344.8" r="1.3" fill="#cbb3ee" opacity="0.21"/><circle cx="105.9" cy="306.6" r="0.6" fill="#cbb3ee" opacity="0.13"/><circle cx="154.9" cy="305.3" r="0.4" fill="#cbb3ee" opacity="0.37"/><circle cx="17.5" cy="436.0" r="0.8" fill="#cbb3ee" opacity="0.27"/><circle cx="371.3" cy="468.9" r="0.4" fill="#cbb3ee" opacity="0.43"/><circle cx="101.6" cy="127.4" r="0.8" fill="#cbb3ee" opacity="0.31"/><circle cx="14.9" cy="29.4" r="1.0" fill="#cbb3ee" opacity="0.12"/><circle cx="303.8" cy="280.8" r="1.0" fill="#cbb3ee" opacity="0.44"/><path d="M277.7442210074514 260.66576504777186 L278.4133637750638 262.6731933506089 L280.42079207790084 263.3423361182213 L278.4133637750638 264.01147888583364 L277.7442210074514 266.0189071886707 L277.07507823983906 264.01147888583364 L275.067649937002 263.3423361182213 L277.07507823983906 262.6731933506089 Z" fill="#e8d5ff" opacity="0.19"/><path d="M263.7919923942536 66.13976397900842 L264.75953966059024 69.04240577801829 L267.6621814596001 70.00995304435492 L264.75953966059024 70.97750031069154 L263.7919923942536 73.88014210970141 L262.824445127917 70.97750031069154 L259.9218033289071 70.00995304435492 L262.824445127917 69.04240577801829 Z" fill="#e8d5ff" opacity="0.19"/><path d="M139.8208351340145 375.61739147710614 L140.7843256437336 378.5078630062635 L143.67479717289098 379.4713535159826 L140.7843256437336 380.43484402570175 L139.8208351340145 383.3253155548591 L138.85734462429537 380.43484402570175 L135.966873095138 379.4713535159826 L138.85734462429537 378.5078630062635 Z" fill="#e8d5ff" opacity="0.31"/><path d="M152.29524011723697 295.46278638369404 L153.0360565018491 297.6852355375304 L155.25850565568544 298.4260519221425 L153.0360565018491 299.1668683067546 L152.29524011723697 301.389317460591 L151.55442373262485 299.1668683067546 L149.3319745787885 298.4260519221425 L151.55442373262485 297.6852355375304 Z" fill="#e8d5ff" opacity="0.20"/><path d="M164.57468724809587 419.7687443092 L165.92288737819763 423.81334469950525 L169.9674877685029 425.161544829607 L165.92288737819763 426.50974495970877 L164.57468724809587 430.55434535001405 L163.2264871179941 426.50974495970877 L159.18188672768883 425.161544829607 L163.2264871179941 423.81334469950525 Z" fill="#e8d5ff" opacity="0.25"/><path d="M341.86237591318786 132.37997202738188 L342.55158467550064 134.4475983143202 L344.61921096243896 135.13680707663298 L342.55158467550064 135.82601583894575 L341.86237591318786 137.89364212588407 L341.1731671508751 135.82601583894575 L339.10554086393677 135.13680707663298 L341.1731671508751 134.4475983143202 Z" fill="#e8d5ff" opacity="0.15"/>
</svg>